<svg xmlns="http://www.w3.org/2000/svg" width="1041.277" height="554.141" viewBox="0 0 1041.277 554.141">
  <title>Toucaan is easy to use</title>
  <g id="Group_24" data-name="Group 24" transform="translate(-440 -263)">
    <g id="Group_23" data-name="Group 23" transform="translate(439.989 262.965)">
      <path id="Path_299" data-name="Path 299"
        d="M1040.82,611.12q-1.74,3.75-3.47,7.4-2.7,5.67-5.33,11.12c-.78,1.61-1.56,3.19-2.32,4.77-8.6,17.57-16.63,33.11-23.45,45.89A73.21,73.21,0,0,1,942.44,719l-151.65,1.65h-1.6l-13,.14-11.12.12-34.1.37h-1.38l-17.36.19h-.53l-107,1.16-95.51,1-11.11.12-69,.75H429l-44.75.48h-.48l-141.5,1.53-42.33.46a87.991,87.991,0,0,1-10.79-.54h0c-1.22-.14-2.44-.3-3.65-.49a87.38,87.38,0,0,1-51.29-27.54C116,678.37,102.75,655,93.85,629.64q-1.93-5.49-3.6-11.12C59.44,514.37,97,380,164.6,290.08q4.25-5.64,8.64-11l.07-.08c20.79-25.52,44.1-46.84,68.93-62,44-26.91,92.75-34.49,140.7-11.9,40.57,19.12,78.45,28.11,115.17,30.55,3.71.24,7.42.42,11.11.53,84.23,2.65,163.17-27.7,255.87-47.29,3.69-.78,7.39-1.55,11.12-2.28,66.13-13.16,139.49-20.1,226.73-5.51a189.089,189.089,0,0,1,26.76,6.4q5.77,1.86,11.12,4c41.64,16.94,64.35,48.24,74,87.46q1.37,5.46,2.37,11.11C1134.3,384.41,1084.19,518.23,1040.82,611.12Z"
        transform="translate(-79.34 -172.91)" fill="#f2f2f2" />
      <path id="Path_300" data-name="Path 300"
        d="M576.36,618.52a95.21,95.21,0,0,1-1.87,11.12h93.7V618.52Zm-78.25,62.81,11.11-.09V653.77c-3.81-.17-7.52-.34-11.11-.52ZM265.19,618.52v11.12h198.5V618.52ZM1114.87,279h-74V191.51q-5.35-2.17-11.12-4V279H776.21V186.58c-3.73.73-7.43,1.5-11.12,2.28V279H509.22V236.15c-3.69-.11-7.4-.29-11.11-.53V279H242.24V217c-24.83,15.16-48.14,36.48-68.93,62h-.07v.08q-4.4,5.4-8.64,11h8.64V618.52h-83q1.66,5.63,3.6,11.12h79.39v93.62a87,87,0,0,0,12.2,2.79c1.21.19,2.43.35,3.65.49h0a87.991,87.991,0,0,0,10.79.54l42.33-.46v-97H498.11v94.21l11.11-.12V629.64H765.09V721l11.12-.12V629.64H1029.7v4.77c.76-1.58,1.54-3.16,2.32-4.77q2.63-5.45,5.33-11.12,1.73-3.64,3.47-7.4v-321h76.42Q1116.23,284.43,1114.87,279ZM242.24,618.52V290.08H498.11V618.52Zm267,0V290.08H765.09V618.52Zm520.48,0H776.21V290.08H1029.7Z"
        transform="translate(-79.34 -172.91)" opacity="0.1" />
    </g>
  </g>

  <defs/>
  <circle cx="162.568" cy="209.37" r="76.426" fill="#e57373"/>
  <path d="M116.442 209.37c0-37.021 26.324-67.888 61.275-74.918a76.693 76.693 0 00-15.15-1.508c-42.208 0-76.425 34.216-76.425 76.425s34.216 76.426 76.425 76.426c5.187 0 10.252-.523 15.15-1.508-34.95-7.028-61.275-37.896-61.275-74.917z" opacity=".1"/>
  <circle cx="349.435" cy="209.37" r="76.426" fill="#ffd54f"/>
  <path d="M303.306 209.37c0-37.021 26.325-67.888 61.276-74.918a76.693 76.693 0 00-15.15-1.508c-42.208 0-76.426 34.216-76.426 76.425s34.216 76.426 76.426 76.426c5.187 0 10.252-.523 15.15-1.508-34.95-7.028-61.276-37.896-61.276-74.917z" opacity=".1"/>
  <circle cx="256.001" cy="318.843" r="89.283" fill="#4fc2f8"/>
  <path d="M197.021 318.841c0-44.143 32.038-80.797 74.129-87.993a89.937 89.937 0 00-15.15-1.286c-49.308 0-89.279 39.971-89.279 89.279 0 49.307 39.971 89.279 89.279 89.279a89.73 89.73 0 0015.15-1.286c-42.091-7.197-74.129-43.851-74.129-87.993z" opacity=".1"/>
  <path d="M504.424 263.574a7.576 7.576 0 000-15.15H484.29c-2.033-57.943-25.544-112.124-66.751-153.331-41.358-41.358-95.783-64.892-153.964-66.774V7.575a7.576 7.576 0 00-15.15 0v20.744C190.243 30.203 135.818 53.735 94.46 95.093 53.252 136.3 29.742 190.481 27.709 248.424H7.575a7.576 7.576 0 000 15.15h20.088c1.732 58.42 25.289 113.09 66.798 154.598 41.358 41.359 95.783 64.892 153.965 66.774v19.478a7.576 7.576 0 0015.15 0v-19.478c58.181-1.884 112.607-25.416 153.965-66.774 41.508-41.508 65.065-96.178 66.798-154.598h20.085zM263.575 469.787V449.33a7.575 7.575 0 00-15.15 0v20.457C136.611 465.863 46.42 375.472 42.823 263.575h19.848a7.576 7.576 0 000-15.15h-19.8C47.106 137.114 137.033 47.389 248.426 43.48v19.191a7.575 7.575 0 0015.15 0V43.48c111.392 3.91 201.319 93.634 205.554 204.945h-19.8a7.576 7.576 0 000 15.15h19.848c-3.598 111.896-93.789 202.287-205.603 206.212z"/>
  <circle cx="133.743" cy="206.098" r="8.838"/>
  <circle cx="191.393" cy="206.098" r="8.838"/>
  <path d="M181.259 218.523h-37.385c0 10.323 8.369 18.692 18.693 18.692 10.324.001 18.692-8.369 18.692-18.692z"/>
  <circle cx="378.26" cy="206.098" r="8.838"/>
  <circle cx="320.61" cy="206.098" r="8.838"/>
  <path d="M349.432 237.216c10.324 0 18.693-8.369 18.693-18.692H330.74c0 10.322 8.368 18.692 18.692 18.692z"/>
  <circle cx="222.329" cy="315.025" r="10.325"/>
  <circle cx="289.674" cy="315.025" r="10.325"/>
  <path d="M277.836 329.532h-43.673c0 12.059 9.777 21.837 21.836 21.837 12.061 0 21.837-9.777 21.837-21.837z"/>
  <path d="M420.435 180.077a7.574 7.574 0 00-5.072 9.435 68.926 68.926 0 012.92 19.858c0 37.964-30.886 68.85-68.85 68.85-1.84 0-3.714-.079-5.6-.234-11.869-25.491-34.316-44.645-61.307-52.317a69.007 69.007 0 01-1.943-16.298c0-37.964 30.886-68.851 68.85-68.851 20.097 0 39.147 8.771 52.266 24.062a7.576 7.576 0 0011.499-9.865c-15.999-18.65-39.241-29.348-63.764-29.348-46.318 0-84 37.683-84 84.001 0 4.434.355 8.838 1.042 13.184a97.444 97.444 0 00-10.475-.569c-3.539 0-7.033.196-10.475.569a84.424 84.424 0 001.042-13.184c0-46.318-37.683-84.001-84.001-84.001-13.332 0-26.107 3.054-37.97 9.079a7.576 7.576 0 006.859 13.509c9.718-4.935 20.186-7.437 31.112-7.437 37.964 0 68.851 30.886 68.851 68.851a69 69 0 01-1.943 16.298c-26.991 7.672-49.437 26.826-61.306 52.317-1.888.156-3.76.234-5.6.234-37.964 0-68.85-30.886-68.85-68.85a68.888 68.888 0 0116.195-44.34 7.575 7.575 0 10-11.583-9.765 84.054 84.054 0 00-19.764 54.105c0 46.312 37.674 83.992 83.984 84a96.61 96.61 0 00-3.406 25.47c0 22.656 7.991 44.697 22.502 62.063a7.574 7.574 0 0010.67.955 7.574 7.574 0 00.955-10.669c-12.238-14.646-18.978-33.237-18.978-52.349 0-45.051 36.652-81.704 81.704-81.704s81.704 36.652 81.704 81.704-36.652 81.704-81.704 81.704c-14.632 0-28.991-3.917-41.523-11.329a7.575 7.575 0 00-7.712 13.04c14.866 8.792 31.891 13.439 49.235 13.439 53.405 0 96.854-43.449 96.854-96.854 0-8.812-1.19-17.351-3.406-25.47 46.311-.008 83.984-37.687 83.984-84a84.068 84.068 0 00-3.562-24.222 7.572 7.572 0 00-9.434-5.071z"/>


  <!-- <defs/>
  <path fill="#fcdd2e" d="M411.959 76.895c-92.525-92.525-242.538-92.525-335.064 0s-92.525 242.538 0 335.064l-28.72 28.72 63.822 63.822L504.5 111.997l-63.822-63.822zM268.36 220.494c-13.218-13.218-34.648-13.218-47.866 0s-13.218 34.648 0 47.866l-79.777 79.777c-57.186-57.186-57.186-150.234 0-207.42s150.234-57.186 207.42 0z"/>
  <path fill="#f9c301" d="M397.189 91.664l14.77-14.77c-92.525-92.525-242.538-92.525-335.064 0-3.889 3.889-7.601 7.889-11.163 11.972 90.175-78.658 225.704-77.622 314.668 3.136 4.816 4.373 12.19 4.262 16.789-.338zM417.543 71.311l30.747 30.747c4.734 4.734 4.734 12.409 0 17.143L87.494 479.997l24.503 24.503L504.5 111.997l-63.822-63.822z"/>
  <path d="M119.769 486.121l-7.772 7.772-53.216-53.215 23.417-23.416c1.407-1.406 2.197-3.314 2.197-5.303s-.79-3.897-2.196-5.303C-1.525 322.931-8.188 190.803 66.7 99.314c2.624-3.205 2.152-7.931-1.053-10.554-3.206-2.623-7.931-2.154-10.555 1.053C16.904 136.467-2.565 195.466.272 255.945c2.738 58.39 26.144 113.47 66.098 155.933l-23.497 23.497c-1.407 1.406-2.197 3.314-2.197 5.303s.79 3.897 2.196 5.303l63.822 63.822c1.465 1.465 3.384 2.197 5.304 2.197 1.919 0 3.839-.732 5.303-2.197l13.076-13.076c2.93-2.929 2.93-7.677.001-10.606-2.93-2.929-7.678-2.929-10.609 0z"/>
  <path d="M225.797 273.663c2.929-2.929 2.929-7.678 0-10.606-10.272-10.272-10.272-26.987 0-37.26 4.976-4.977 11.592-7.717 18.63-7.717 7.037 0 13.653 2.74 18.629 7.717 1.407 1.407 3.314 2.197 5.304 2.197s3.896-.79 5.304-2.197l42.942-42.943c2.929-2.929 2.929-7.678 0-10.606s-7.677-2.93-10.607 0l-38.115 38.116c-6.846-4.736-14.955-7.284-23.456-7.284-11.045 0-21.428 4.301-29.237 12.11-14.311 14.311-15.917 36.587-4.821 52.687l-69.511 69.512c-6.529-7.265-12.149-15.06-16.878-23.234-.014-.025-.024-.051-.038-.076-.023-.041-.05-.077-.074-.116-30.669-53.2-23.29-122.502 22.152-167.943 52.483-52.483 136.8-54.204 191.369-5.162l-6.298 6.298c-2.93 2.929-2.93 7.677-.001 10.606s7.678 2.93 10.606 0l24.508-24.507c2.93-2.929 2.93-7.677.001-10.606s-7.678-2.93-10.606 0l-7.592 7.592c-6.887-6.255-14.207-11.777-21.859-16.561l1.208-2.043c2.108-3.565.927-8.165-2.639-10.273-3.565-2.108-8.164-.927-10.273 2.638l-1.396 2.361c-6.989-3.467-14.187-6.37-21.528-8.712l2.784-10.39c1.072-4.001-1.302-8.113-5.303-9.186-4.001-1.074-8.114 1.302-9.186 5.304l-2.79 10.415c-8.872-1.906-17.881-3.018-26.913-3.348l.031-2.989c.043-4.142-3.28-7.534-7.422-7.577h-.08c-4.105 0-7.455 3.307-7.498 7.422l-.034 3.32c-7.813.469-15.597 1.523-23.279 3.172l-2.791-10.415c-1.071-4.001-5.183-6.375-9.186-5.304-4.001 1.072-6.375 5.185-5.303 9.186l2.784 10.39c-8.413 2.684-16.64 6.103-24.578 10.264l-1.572-2.79c-2.033-3.608-6.605-4.886-10.216-2.853-3.608 2.033-4.886 6.607-2.853 10.216l1.712 3.039c-6.614 4.343-12.963 9.249-18.982 14.714l-7.592-7.592c-2.928-2.93-7.677-2.929-10.606 0s-2.929 7.678.001 10.606l7.592 7.591c-5.938 6.538-11.206 13.47-15.819 20.703l-2.785-1.647c-3.562-2.108-8.164-.927-10.272 2.638-2.109 3.565-.928 8.165 2.638 10.273l2.985 1.765c-3.74 7.373-6.856 14.983-9.336 22.755l-10.39-2.784c-4.001-1.071-8.113 1.302-9.186 5.303-1.072 4.001 1.302 8.114 5.303 9.186l10.416 2.791c-1.793 8.35-2.893 16.82-3.291 25.318l-3.045-.032c-4.146-.066-7.535 3.278-7.579 7.421-.043 4.142 3.279 7.535 7.421 7.578l3.227.034c.415 8.349 1.505 16.671 3.267 24.875l-10.416 2.791c-4.001 1.072-6.375 5.185-5.303 9.186.897 3.351 3.928 5.561 7.239 5.561.643 0 1.296-.083 1.946-.257l10.39-2.784c2.545 7.977 5.76 15.783 9.633 23.337l-2.159 1.217c-3.608 2.033-4.886 6.607-2.853 10.216 1.378 2.445 3.921 3.82 6.541 3.82 1.247 0 2.512-.312 3.675-.967l2.288-1.289c4.528 7.034 9.679 13.781 15.466 20.153l-7.592 7.591c-2.93 2.929-2.93 7.677-.001 10.606 1.465 1.465 3.384 2.197 5.304 2.197 1.919 0 3.839-.732 5.303-2.197z"/>
  <path d="M509.804 106.694l-63.822-63.822c-2.93-2.929-7.678-2.929-10.607 0l-23.496 23.496C367.918 24.983 310.818 1.504 250.248.07 187.424-1.419 127.157 20.926 80.639 62.987c-3.072 2.778-3.311 7.52-.533 10.593 2.779 3.073 7.521 3.311 10.594.533C181.362-7.86 320.148-4.311 406.655 82.198c1.407 1.407 3.314 2.197 5.304 2.197s3.896-.79 5.304-2.197l23.416-23.416 53.216 53.215-42.046 42.046-7.46-7.461c-2.929-2.929-7.678-2.929-10.606 0-2.93 2.929-2.93 7.677-.001 10.606l7.461 7.461-37.259 37.259-7.46-7.461c-2.929-2.929-7.678-2.929-10.606 0-2.93 2.929-2.93 7.677-.001 10.606l7.461 7.461-37.26 37.26-7.461-7.461c-2.93-2.929-7.678-2.929-10.607 0s-2.929 7.678 0 10.606l7.461 7.462-37.26 37.26-7.461-7.461c-2.928-2.93-7.677-2.929-10.606 0s-2.929 7.678.001 10.606l7.461 7.461-37.26 37.26-7.461-7.461c-2.928-2.93-7.677-2.929-10.606 0s-2.929 7.678.001 10.606l7.461 7.461-37.26 37.26-7.461-7.461c-2.928-2.93-7.677-2.929-10.606 0s-2.929 7.678.001 10.606l7.461 7.461-37.26 37.26-7.461-7.461c-2.93-2.929-7.678-2.929-10.607 0s-2.929 7.678 0 10.606l7.461 7.461-9.312 9.312c-2.929 2.929-2.929 7.678 0 10.606 1.465 1.464 3.385 2.197 5.304 2.197s3.839-.732 5.304-2.197l14.61-14.61.005-.005.005-.005L509.804 117.3c1.406-1.406 2.196-3.314 2.196-5.303s-.79-3.897-2.196-5.303z"/> -->

</svg>