<svg xmlns="http://www.w3.org/2000/svg" width="1041.277" height="554.141" viewBox="0 0 1041.277 554.141">
  <title>Focus on intrinsic web design</title>
  <g id="Group_24" data-name="Group 24" transform="translate(-440 -263)">
    <g id="Group_23" data-name="Group 23" transform="translate(439.989 262.965)">
      <path id="Path_299" data-name="Path 299"
        d="M1040.82,611.12q-1.74,3.75-3.47,7.4-2.7,5.67-5.33,11.12c-.78,1.61-1.56,3.19-2.32,4.77-8.6,17.57-16.63,33.11-23.45,45.89A73.21,73.21,0,0,1,942.44,719l-151.65,1.65h-1.6l-13,.14-11.12.12-34.1.37h-1.38l-17.36.19h-.53l-107,1.16-95.51,1-11.11.12-69,.75H429l-44.75.48h-.48l-141.5,1.53-42.33.46a87.991,87.991,0,0,1-10.79-.54h0c-1.22-.14-2.44-.3-3.65-.49a87.38,87.38,0,0,1-51.29-27.54C116,678.37,102.75,655,93.85,629.64q-1.93-5.49-3.6-11.12C59.44,514.37,97,380,164.6,290.08q4.25-5.64,8.64-11l.07-.08c20.79-25.52,44.1-46.84,68.93-62,44-26.91,92.75-34.49,140.7-11.9,40.57,19.12,78.45,28.11,115.17,30.55,3.71.24,7.42.42,11.11.53,84.23,2.65,163.17-27.7,255.87-47.29,3.69-.78,7.39-1.55,11.12-2.28,66.13-13.16,139.49-20.1,226.73-5.51a189.089,189.089,0,0,1,26.76,6.4q5.77,1.86,11.12,4c41.64,16.94,64.35,48.24,74,87.46q1.37,5.46,2.37,11.11C1134.3,384.41,1084.19,518.23,1040.82,611.12Z"
        transform="translate(-79.34 -172.91)" fill="#f2f2f2" />
      <path id="Path_300" data-name="Path 300"
        d="M576.36,618.52a95.21,95.21,0,0,1-1.87,11.12h93.7V618.52Zm-78.25,62.81,11.11-.09V653.77c-3.81-.17-7.52-.34-11.11-.52ZM265.19,618.52v11.12h198.5V618.52ZM1114.87,279h-74V191.51q-5.35-2.17-11.12-4V279H776.21V186.58c-3.73.73-7.43,1.5-11.12,2.28V279H509.22V236.15c-3.69-.11-7.4-.29-11.11-.53V279H242.24V217c-24.83,15.16-48.14,36.48-68.93,62h-.07v.08q-4.4,5.4-8.64,11h8.64V618.52h-83q1.66,5.63,3.6,11.12h79.39v93.62a87,87,0,0,0,12.2,2.79c1.21.19,2.43.35,3.65.49h0a87.991,87.991,0,0,0,10.79.54l42.33-.46v-97H498.11v94.21l11.11-.12V629.64H765.09V721l11.12-.12V629.64H1029.7v4.77c.76-1.58,1.54-3.16,2.32-4.77q2.63-5.45,5.33-11.12,1.73-3.64,3.47-7.4v-321h76.42Q1116.23,284.43,1114.87,279ZM242.24,618.52V290.08H498.11V618.52Zm267,0V290.08H765.09V618.52Zm520.48,0H776.21V290.08H1029.7Z"
        transform="translate(-79.34 -172.91)" opacity="0.1" />

    </g>
  </g>

  <defs/>
  <g id="Layer_1">
    <path fill="#13bf6d" d="M207.536 120.784l40.385-39.577-40.385-39.577v16.837l-43.615-1.749v48.978l43.615-1.749z"/>
    <path d="M167.176 95.557a2.5 2.5 0 012.398-2.598l2.372-.095a2.5 2.5 0 01.2 4.996l-2.372.095a2.5 2.5 0 01-2.598-2.398zm12.364-.495a2.5 2.5 0 012.398-2.598l20.983-.841a2.512 2.512 0 012.598 2.398 2.5 2.5 0 01-2.398 2.598l-20.983.841a2.5 2.5 0 01-2.598-2.398zM214.162 100.29a2.501 2.501 0 01.036-3.536l15.864-15.547-6.58-6.447a2.501 2.501 0 013.5-3.572l8.401 8.233a2.501 2.501 0 010 3.571l-17.686 17.333a2.5 2.5 0 01-3.535-.035zm2.178-32.53l-2.143-2.1a2.501 2.501 0 013.5-3.572l2.143 2.1a2.501 2.501 0 01-3.5 3.572z" class="st8"/>
    <path fill="#fc5d3d" d="M48.464 214.364L8.079 174.788l40.385-39.577v16.836l43.615-1.749v48.979l-43.615-1.749z"/>
    <path d="M85.721 191.513c-.034 0-.068 0-.102-.002l-1.765-.071a2.5 2.5 0 01-2.398-2.598c.055-1.38 1.24-2.461 2.598-2.398l1.765.071a2.5 2.5 0 01-.098 4.998zm-11.757-.471c-.034 0-.068 0-.102-.002l-20.983-.841a2.5 2.5 0 01-2.398-2.598 2.513 2.513 0 012.598-2.398l20.983.841a2.5 2.5 0 01-.098 4.998zM38.302 193.905l-17.686-17.333a2.501 2.501 0 010-3.571l8.401-8.233a2.501 2.501 0 013.5 3.572l-6.58 6.447 15.864 15.547a2.5 2.5 0 11-3.499 3.571zm-2.178-32.6a2.501 2.501 0 01.036-3.536l2.143-2.1a2.501 2.501 0 013.5 3.572l-2.143 2.1a2.502 2.502 0 01-3.536-.036z" class="st11"/>
    <path d="M8.08 70.877c-1.38 0-2.5 1.13-2.5 2.5a2.5 2.5 0 002.5 2.5H23.6a2.5 2.5 0 002.5-2.5c0-1.37-1.12-2.5-2.5-2.5h-5.26v-20.78c0-1.871-1.983-3.049-3.62-2.23l-7.3 3.67a2.489 2.489 0 00-1.12 3.35c.6 1.2 2.15 1.72 3.36 1.12l3.68-1.85v16.72H8.08zM15.84 114.807c5.65 0 10.26-4.6 10.26-10.25v-7.76c0-5.66-4.61-10.26-10.26-10.26-5.66 0-10.26 4.6-10.26 10.26v7.76c0 5.65 4.6 10.25 10.26 10.25zm-5.26-18.01c0-2.9 2.36-5.26 5.26-5.27 2.89.01 5.25 2.37 5.26 5.27v7.76c-.01 2.89-2.37 5.25-5.26 5.25-2.9 0-5.26-2.36-5.26-5.25v-7.76zM47.97 109.807c-1.38 0-2.5 1.13-2.5 2.5a2.5 2.5 0 002.5 2.5h15.52a2.5 2.5 0 002.5-2.5c0-1.37-1.12-2.5-2.5-2.5h-5.26v-20.77c0-1.882-1.98-3.06-3.62-2.24l-7.3 3.66a2.503 2.503 0 00-1.12 3.36c.6 1.2 2.15 1.72 3.36 1.11l3.68-1.84v16.72h-5.26zM55.73 47.607c-5.66 0-10.26 4.6-10.26 10.25v7.76c0 5.66 4.6 10.26 10.26 10.26s10.26-4.6 10.26-10.26v-7.76c0-5.65-4.6-10.25-10.26-10.25zm5.26 18.01c-.01 2.9-2.37 5.26-5.26 5.26-2.9 0-5.26-2.36-5.26-5.26v-7.76c0-2.89 2.36-5.25 5.26-5.26 2.89.01 5.25 2.37 5.26 5.26v7.76zM144.76 114.807c1.37 0 2.5-1.12 2.5-2.5 0-1.37-1.13-2.5-2.5-2.5h-5.26v-20.77c0-1.872-1.972-3.058-3.63-2.24l-7.3 3.66a2.508 2.508 0 00-1.11 3.36c.6 1.2 2.15 1.72 3.36 1.12l3.68-1.85v16.72h-5.26c-1.38 0-2.5 1.13-2.5 2.5a2.5 2.5 0 002.5 2.5h15.52zM126.74 57.867v7.75c0 5.66 4.6 10.26 10.26 10.26 5.65 0 10.26-4.6 10.26-10.26v-7.75c0-5.66-4.61-10.26-10.26-10.26-5.66 0-10.26 4.6-10.26 10.26zm15.52 0v7.75c-.01 2.9-2.37 5.26-5.26 5.26-2.9 0-5.26-2.36-5.26-5.26v-7.75c0-2.9 2.36-5.26 5.26-5.27 2.89.01 5.25 2.37 5.26 5.27zM103.38 70.877h-5.26v-20.77c0-1.862-1.969-3.066-3.62-2.24l-7.31 3.67a2.489 2.489 0 00-1.11 3.35c.6 1.2 2.15 1.72 3.36 1.11l3.68-1.84v16.72h-5.26a2.51 2.51 0 00-2.5 2.51c0 1.37 1.12 2.49 2.5 2.49h15.52c1.38 0 2.5-1.12 2.5-2.49a2.51 2.51 0 00-2.5-2.51zM105.88 96.797c0-5.66-4.61-10.26-10.26-10.26-5.66 0-10.26 4.6-10.26 10.26v7.76c0 5.65 4.6 10.25 10.26 10.25 5.65 0 10.26-4.6 10.26-10.25v-7.76zm-5 7.76c-.01 2.89-2.37 5.25-5.26 5.25-2.9 0-5.26-2.36-5.26-5.25v-7.76c0-2.9 2.36-5.26 5.26-5.27 2.89.01 5.25 2.37 5.26 5.27v7.76zM161.42 56.617a2.51 2.51 0 002.4 2.6c.171.007 13.989.56 14.16.56 1.34 0 2.44-1.05 2.49-2.4.062-1.349-1.008-2.548-2.4-2.59l-14.05-.57c-1.37-.06-2.54 1.02-2.6 2.4zM205.04 41.627v14.24l-6.98-.28c-1.38-.07-2.55 1.02-2.6 2.4a2.494 2.494 0 002.4 2.59l9.58.39a2.512 2.512 0 002.6-2.5v-10.89l34.31 33.63-34.31 33.63v-10.89a2.513 2.513 0 00-2.6-2.5l-43.62 1.75a2.51 2.51 0 00-2.4 2.6c.06 1.38 1.23 2.46 2.6 2.4l41.02-1.65v14.24c0 2.17 2.612 3.349 4.25 1.78l40.38-39.57c1.002-.981.995-2.617 0-3.57l-40.38-39.58c-1.587-1.542-4.25-.429-4.25 1.78zM185.47 57.577a2.485 2.485 0 002.5 2.6c1.34 0 2.44-1.05 2.49-2.4a2.494 2.494 0 00-2.4-2.59c-1.36-.07-2.54 1.02-2.59 2.39zM117.88 141.447l-7.3 3.66a2.508 2.508 0 00-1.11 3.36c.6 1.2 2.15 1.72 3.35 1.11l3.68-1.84v16.73h-5.26a2.5 2.5 0 00-2.5 2.5c0 1.37 1.12 2.49 2.5 2.49h15.52c1.38 0 2.5-1.12 2.5-2.49a2.5 2.5 0 00-2.5-2.5h-5.26v-20.78c0-1.898-1.988-3.056-3.62-2.24zM129.26 198.127v-7.75c0-5.66-4.6-10.26-10.26-10.26-5.65 0-10.25 4.6-10.26 10.26v7.75c.01 5.66 4.61 10.26 10.26 10.26 5.66 0 10.26-4.6 10.26-10.26zm-5 0c0 2.9-2.36 5.26-5.26 5.27-2.89-.01-5.25-2.37-5.26-5.27v-7.75c.01-2.9 2.37-5.26 5.26-5.27 2.9.01 5.26 2.37 5.26 5.27v7.75zM169.15 205.887c0-1.37-1.12-2.5-2.5-2.5h-5.26v-20.77c0-1.899-1.988-3.056-3.62-2.24l-7.3 3.67a2.489 2.489 0 00-1.11 3.35c.6 1.2 2.14 1.72 3.35 1.12l3.68-1.85v16.72h-5.26c-1.38 0-2.5 1.13-2.5 2.5a2.51 2.51 0 002.5 2.51h15.52c1.38 0 2.5-1.13 2.5-2.51zM148.63 151.437v7.76c0 5.66 4.61 10.26 10.26 10.26 5.66 0 10.26-4.6 10.26-10.26v-7.76c0-5.65-4.6-10.25-10.26-10.25-5.65 0-10.26 4.6-10.26 10.25zm15.52 0v7.76c0 2.9-2.36 5.26-5.26 5.27-2.89-.01-5.25-2.37-5.26-5.27v-7.76c.01-2.89 2.37-5.25 5.26-5.25 2.9 0 5.26 2.36 5.26 5.25zM232.4 203.397c-1.38 0-2.5 1.12-2.5 2.49a2.51 2.51 0 002.5 2.51h15.52c1.38 0 2.5-1.13 2.5-2.51 0-1.37-1.12-2.49-2.5-2.49h-5.26v-20.78c0-1.879-1.978-3.061-3.62-2.24l-7.3 3.66a2.508 2.508 0 00-1.11 3.36c.6 1.2 2.14 1.72 3.35 1.12l3.68-1.85v16.73h-5.26zM250.42 151.437c0-5.65-4.6-10.25-10.26-10.25s-10.26 4.6-10.26 10.25v7.77c0 5.65 4.6 10.25 10.26 10.25s10.26-4.6 10.26-10.25v-7.77zm-5 7.77c0 2.89-2.36 5.25-5.26 5.25-2.89 0-5.25-2.36-5.26-5.25v-7.77a5.292 5.292 0 015.26-5.26c2.9.01 5.26 2.37 5.26 5.26v7.77zM206.54 164.467h-5.26v-20.78c0-1.898-1.987-3.056-3.62-2.24l-7.3 3.67c-1.193.577-1.747 2.076-1.11 3.35.6 1.2 2.14 1.72 3.35 1.12l3.68-1.85v16.73h-5.26c-1.38 0-2.5 1.12-2.5 2.49a2.51 2.51 0 002.5 2.51h15.52c1.38 0 2.5-1.13 2.5-2.51 0-1.37-1.12-2.49-2.5-2.49zM209.04 190.377c0-5.66-4.6-10.26-10.26-10.26-5.65 0-10.26 4.6-10.26 10.26v7.76c0 5.65 4.61 10.25 10.26 10.25 5.66 0 10.26-4.6 10.26-10.25v-7.76zm-5 7.76c0 2.89-2.36 5.25-5.26 5.25-2.89 0-5.25-2.36-5.26-5.25v-7.76c.01-2.9 2.37-5.26 5.26-5.26 2.9 0 5.26 2.36 5.26 5.26v7.76zM65.61 151.367c.05 1.34 1.15 2.4 2.5 2.4.03 0 .06-.01.1-.01 1.357-.041 2.452-1.216 2.39-2.6a2.483 2.483 0 00-2.6-2.39 2.49 2.49 0 00-2.39 2.6zM94.65 199.377c.041-1.388-1.002-2.537-2.4-2.6l-43.62-1.75a2.514 2.514 0 00-2.6 2.5v10.89l-34.31-33.63 34.31-33.63v10.89c0 1.416 1.182 2.542 2.6 2.5l9.58-.39c1.393-.042 2.461-1.242 2.4-2.59a2.478 2.478 0 00-2.6-2.4l-6.98.28v-14.24c0-2.241-2.708-3.3-4.25-1.78L6.4 173.007c-.999.958-.999 2.602 0 3.56l40.38 39.58c1.596 1.561 4.25.415 4.25-1.78v-14.24l41.02 1.65c1.568 0 2.544-1.136 2.6-2.4zM75.6 150.967a2.484 2.484 0 002.49 2.39h.11l14.05-.56a2.497 2.497 0 002.4-2.6 2.497 2.497 0 00-2.6-2.4l-14.05.57a2.497 2.497 0 00-2.4 2.6z"/>
  </g>






  <!-- <defs/>
  <g fill="#424c59">
    <path d="M191.816 7.605c-13.439 0-24.333 10.894-24.333 24.333v448.128c0 13.439 10.894 24.333 24.333 24.333 13.439 0 24.333-10.894 24.333-24.333V31.938c0-13.439-10.894-24.333-24.333-24.333z"/>
    <path d="M327.163 7.605c-13.439 0-24.333 10.894-24.333 24.333v448.128c0 13.439 10.894 24.333 24.333 24.333 13.439 0 24.333-10.894 24.333-24.333V31.938c0-13.439-10.894-24.333-24.333-24.333z"/>
    <path d="M57.379 7.605c-13.439 0-24.333 10.894-24.333 24.333v448.128c0 13.439 10.894 24.333 24.333 24.333 13.439 0 24.333-10.894 24.333-24.333V31.938C81.711 18.499 70.817 7.605 57.379 7.605z"/>
  </g>
  <g fill="#fcc63f">
    <circle cx="327.327" cy="199.7" r="49.051"/>
    <circle cx="191.256" cy="112.508" r="49.051"/>
    <circle cx="57.465" cy="362.78" r="49.051"/>
  </g>
  <path fill="#ffe2c5" d="M252.501 306.683c13.875-7.698 31.359-2.693 39.049 11.184 9.592 17.287 10.77 25.851 10.77 25.851V208.753c0-6.941 2.813-13.23 7.37-17.787 4.557-4.557 10.846-7.371 17.787-7.371 13.887 0 25.147 11.255 25.157 25.14v89.075c0-13.895 11.264-25.159 25.159-25.159s25.159 11.264 25.159 25.159v6.415c0-13.895 11.264-25.159 25.159-25.159s25.159 11.264 25.159 25.159v25.159c0-13.895 11.264-25.159 25.159-25.159s25.159 11.264 25.159 25.159v58.026c0 54.103-34.704 116.983-96.142 116.983h-74.937c-83.244 0-83.796-115.264-83.796-115.264s.018-30.029-7.395-43.399c-7.697-13.866-2.692-31.349 11.183-39.047z"/>
  <g fill="#e5c4a5">
    <path d="M314.376 390.046c-6.574.302-12.055-4.986-12.055-11.567V208.754c0-6.945 2.819-13.231 7.371-17.783 4.562-4.562 10.848-7.371 17.793-7.371 4.208 0 8.182 1.034 11.659 2.869-2.271 1.176-4.339 2.707-6.134 4.502-4.552 4.552-7.371 10.838-7.371 17.783v169.717c0 6.149-4.806 11.258-10.949 11.559-.104.006-.209.011-.314.016z"/>
    <path d="M364.688 348.517c-6.574.302-12.055-4.986-12.055-11.567v-39.139c0-6.945 2.819-13.231 7.371-17.783 4.562-4.562 10.848-7.371 17.793-7.371 4.208 0 8.182 1.034 11.659 2.869-2.271 1.176-4.339 2.707-6.134 4.502-4.552 4.552-7.371 10.838-7.371 17.783v39.132c0 6.149-4.806 11.258-10.949 11.559-.103.005-.208.01-.314.015z"/>
    <path d="M415.006 339.723c-6.574.302-12.054-4.986-12.054-11.567v-23.931c0-6.945 2.819-13.231 7.371-17.783 4.562-4.562 10.848-7.371 17.793-7.371 4.208 0 8.182 1.034 11.659 2.869-2.271 1.176-4.339 2.707-6.134 4.502-4.552 4.552-7.371 10.838-7.371 17.783v23.923c0 6.149-4.806 11.258-10.949 11.559-.104.006-.209.011-.315.016z"/>
    <path d="M465.323 349.673c-6.574.302-12.054-4.986-12.054-11.566v-8.722c0-6.945 2.819-13.231 7.371-17.783 4.562-4.562 10.848-7.371 17.793-7.371 4.208 0 8.182 1.034 11.659 2.869-2.271 1.176-4.339 2.707-6.134 4.502-4.552 4.552-7.371 10.838-7.371 17.783v8.714c0 6.149-4.806 11.258-10.949 11.559-.104.005-.209.01-.315.015z"/>
    <path d="M355.832 504.396h-23.319c-83.248 0-83.796-115.266-83.796-115.266 0-.162-.01-30.071-7.401-43.403-7.695-13.859-2.687-31.349 11.183-39.044 8.192-4.542 17.651-4.664 25.6-1.135-.771.345-1.531.72-2.281 1.135-13.87 7.695-18.878 25.184-11.183 39.044 7.391 13.332 7.401 43.241 7.401 43.403.001 0 .548 115.266 83.796 115.266z"/>
  </g>
  <path d="M247.908 112.507c0-31.239-25.414-56.654-56.653-56.654s-56.654 25.414-56.654 56.654 25.414 56.654 56.654 56.654 56.653-25.415 56.653-56.654zm-98.098 0c0-22.853 18.592-41.446 41.446-41.446S232.7 89.654 232.7 112.507s-18.592 41.446-41.445 41.446-41.445-18.592-41.445-41.446z"/>
  <path d="M57.465 306.122c-31.239 0-56.654 25.414-56.654 56.654s25.414 56.654 56.654 56.654 56.653-25.414 56.653-56.654c.001-31.239-25.414-56.654-56.653-56.654zm0 98.098c-22.853 0-41.446-18.592-41.446-41.446s18.592-41.446 41.446-41.446S98.91 339.92 98.91 362.774c.001 22.854-18.591 41.446-41.445 41.446z"/>
  <path d="M478.428 296.621c-6.492 0-12.549 1.897-17.645 5.168-1.249-16.932-15.427-30.327-32.673-30.327-8.721 0-16.658 3.426-22.535 9.001-5.797-9.251-16.083-15.416-27.783-15.416-6.453 0-12.478 1.876-17.554 5.11V208.73c-.013-18.052-14.71-32.738-32.761-32.738-8.75 0-16.975 3.409-23.163 9.597-6.189 6.189-9.598 14.415-9.598 23.164v100.233c-4.658-5.803-10.978-10.022-18.278-12.113-9.328-2.672-19.14-1.549-27.627 3.16-8.486 4.708-14.631 12.438-17.302 21.767-2.672 9.329-1.55 19.138 3.157 27.619 5.282 9.528 6.441 31.895 6.441 39.748.006 1.231.27 30.487 11.144 60.208 14.99 40.968 42.741 62.623 80.255 62.623h74.937c31.343 0 59.339-15.465 78.832-43.546 2.395-3.45 1.54-8.188-1.911-10.583-3.447-2.395-8.186-1.539-10.583 1.911-11.72 16.884-32.743 37.011-66.339 37.011h-74.937c-30.895 0-53.05-17.601-65.852-52.311-10.049-27.249-10.337-55.111-10.339-55.344.002-3.275-.215-32.421-8.35-47.094-2.736-4.93-3.388-10.632-1.835-16.055s5.126-9.918 10.06-12.655c4.934-2.738 10.637-3.391 16.062-1.838 5.422 1.552 9.913 5.125 12.649 10.063 7.508 13.53 9.454 21.198 9.817 22.853v44.62c0 4.199 3.404 7.604 7.604 7.604s7.604-3.405 7.604-7.604V208.756c0-4.686 1.827-9.093 5.143-12.411 3.316-3.316 7.723-5.142 12.409-5.142 9.672 0 17.547 7.869 17.553 17.536v131.445c0 4.199 3.404 7.604 7.604 7.604s7.604-3.405 7.604-7.604v-42.37c0-9.679 7.876-17.555 17.554-17.555s17.554 7.875 17.554 17.555v34.18c0 4.199 3.404 7.604 7.604 7.604s7.604-3.405 7.604-7.604v-27.765c0-9.68 7.876-17.555 17.555-17.555 9.679 0 17.554 7.875 17.554 17.555v38.297c0 4.199 3.404 7.604 7.604 7.604s7.604-3.405 7.604-7.604v-13.138c0-9.679 7.876-17.555 17.555-17.555 9.679 0 17.554 7.875 17.554 17.555v58.026c0 17.627-3.805 35.671-11.004 52.179-1.678 3.85.081 8.331 3.931 10.01 3.854 1.679 8.332-.081 10.01-3.931 8.028-18.411 12.272-38.556 12.272-58.258v-58.026c.001-18.07-14.696-32.767-32.761-32.767z"/>
  <path d="M285.095 225.796c3.867-1.636 5.678-6.097 4.04-9.965-2.159-5.105-3.254-10.531-3.254-16.131 0-22.853 18.592-41.446 41.446-41.446 22.853 0 41.446 18.592 41.446 41.446 0 5.599-1.095 11.026-3.253 16.131-1.636 3.868.173 8.33 4.04 9.965.967.41 1.971.602 2.959.602 2.962 0 5.779-1.743 7.006-4.643 2.956-6.989 4.456-14.409 4.456-22.055 0-19.472-9.877-36.678-24.881-46.88V31.937C359.1 14.327 344.773 0 327.163 0s-31.937 14.327-31.937 31.937v121.118c-14.818 10.229-24.553 27.319-24.553 46.646 0 7.646 1.5 15.066 4.456 22.055 1.636 3.868 6.097 5.675 9.966 4.04zm25.34-193.859c0-9.224 7.505-16.729 16.729-16.729s16.729 7.505 16.729 16.729v113.587c-5.243-1.606-10.803-2.476-16.564-2.476-5.881 0-11.555.902-16.893 2.573V31.937z"/>
  <path d="M167.48 51.857c4.199 0 7.604-3.405 7.604-7.604V31.937c0-9.224 7.505-16.729 16.729-16.729s16.729 7.505 16.729 16.729v12.955c0 4.199 3.405 7.604 7.604 7.604s7.604-3.405 7.604-7.604V31.937C223.75 14.327 209.423 0 191.813 0s-31.937 14.327-31.937 31.937v12.316c0 4.2 3.405 7.604 7.604 7.604z"/>
  <path d="M216.146 401.764c-4.199 0-7.604 3.405-7.604 7.604v70.696c0 4.467-1.74 8.668-4.9 11.829-3.16 3.16-7.361 4.9-11.829 4.9-9.224 0-16.729-7.505-16.729-16.729v-299.3c0-4.199-3.405-7.604-7.604-7.604s-7.604 3.405-7.604 7.604v299.3c0 17.61 14.327 31.937 31.937 31.937 8.531 0 16.549-3.322 22.582-9.355 6.032-6.033 9.355-14.052 9.355-22.582v-70.696c0-4.2-3.405-7.604-7.604-7.604z"/>
  <path d="M216.146 172.521c-4.199 0-7.604 3.405-7.604 7.604V384.02c0 4.199 3.405 7.604 7.604 7.604s7.604-3.405 7.604-7.604V180.125c0-4.2-3.405-7.604-7.604-7.604z"/>
  <path d="M33.042 68.2c4.199 0 7.604-3.405 7.604-7.604v-28.66c0-9.224 7.505-16.729 16.729-16.729s16.729 7.505 16.729 16.729v262.852c0 4.199 3.405 7.604 7.604 7.604s7.604-3.405 7.604-7.604V31.937C89.312 14.327 74.985 0 57.375 0S25.438 14.327 25.438 31.937v28.66c0 4.199 3.405 7.603 7.604 7.603z"/>
  <path d="M33.042 302.494c4.199 0 7.604-3.405 7.604-7.604V85.945c0-4.199-3.405-7.604-7.604-7.604s-7.604 3.405-7.604 7.604V294.89c0 4.199 3.405 7.604 7.604 7.604z"/>
  <path d="M81.708 423.167c-4.199 0-7.604 3.405-7.604 7.604v49.292c0 4.467-1.74 8.668-4.9 11.829s-7.361 4.9-11.829 4.9c-9.224 0-16.729-7.505-16.729-16.729v-49.404c0-4.199-3.405-7.604-7.604-7.604s-7.604 3.405-7.604 7.604v49.404c0 17.61 14.327 31.937 31.937 31.937 8.53 0 16.549-3.322 22.582-9.355 6.032-6.033 9.355-14.052 9.355-22.582v-49.292c0-4.199-3.405-7.604-7.604-7.604z"/> -->


</svg>