<?xml version="1.0" encoding="UTF-8" standalone="no"?>
<!DOCTYPE svg PUBLIC "-//W3C//DTD SVG 1.1//EN" "http://www.w3.org/Graphics/SVG/1.1/DTD/svg11.dtd">
<svg width="100%" height="100%" viewBox="0 0 6667 6667" version="1.1" xmlns="http://www.w3.org/2000/svg" xmlns:xlink="http://www.w3.org/1999/xlink" xml:space="preserve" xmlns:serif="http://www.serif.com/" style="fill-rule:evenodd;clip-rule:evenodd;stroke-linejoin:round;stroke-miterlimit:2;">
    <g transform="matrix(4.16667,0,0,4.16667,0,0)">
        <path d="M959.002,913.63C939.903,915.028 920.978,913.224 902.448,908.96C795.975,884.461 725.591,820.058 690.889,715.908C694.477,712.133 698.048,709.127 701.454,705.946C759.534,651.7 775.069,565.654 739.758,494.467C730.097,474.991 717.026,458.093 701.673,442.849C742.569,353.528 811.066,298.785 907.337,279.103C918.561,276.808 930.096,276.035 941.848,274.358C947.462,274.119 952.715,274.08 958.394,274.523C958.574,277.135 958.113,279.267 958.113,281.399C958.079,436.675 958.078,591.951 958.123,747.227C958.124,749.851 958.732,752.474 959.056,755.098C959.042,807.783 959.028,860.467 959.002,913.63Z" style="fill:rgb(239,189,78);fill-rule:nonzero;"/>
        <path d="M1318.83,276.177C1329.68,278.418 1340.76,279.917 1351.33,283.084C1365.13,287.217 1378.62,292.441 1392.06,297.661C1398.41,300.129 1404.49,303.433 1410.43,306.812C1416.53,310.276 1421.91,315.282 1428.31,317.816C1436.04,320.874 1441.24,327.095 1448.11,331.107C1452.1,333.434 1455.3,337.124 1458.82,340.248C1462.39,343.421 1465.9,346.653 1469.77,350.329C1474.36,354.838 1478.61,358.878 1482.87,362.918C1488.72,369.32 1494.74,375.584 1500.37,382.175C1503.8,386.192 1506.28,391.048 1509.88,394.882C1512.06,397.205 1514.15,398.583 1514.36,402.461C1514.52,405.596 1517.46,408.571 1519.12,411.645C1525.46,423.39 1532.55,434.806 1537.88,446.993C1543.26,459.3 1547.44,472.217 1551.09,485.165C1553.91,495.189 1555.16,505.661 1556.99,515.957C1557.81,520.628 1558.66,525.339 1558.87,530.06C1559.05,533.97 1558.03,537.925 1558.07,541.855C1558.11,547.112 1558.95,552.364 1558.96,557.62C1559.02,621.27 1559,684.921 1559,748.572L1559,754.958C1478.97,754.958 1399.38,754.958 1319.35,754.426C1318.9,597.486 1318.9,441.078 1318.9,284.67C1318.9,281.839 1318.86,279.008 1318.83,276.177Z" style="fill:rgb(138,91,156);fill-rule:nonzero;"/>
        <path d="M1318.41,276.112C1318.86,279.008 1318.9,281.839 1318.9,284.67C1318.9,441.078 1318.9,597.486 1318.87,754.35C1317.02,754.869 1315.19,754.988 1313.36,754.988C1255.27,754.989 1197.18,754.978 1138.62,754.443C1138.13,658.467 1138.11,563.017 1138.12,467.568C1138.12,403.102 1138.17,338.637 1138.19,274.171C1164.64,274.115 1191.09,274.043 1217.54,274.006C1235.85,273.98 1254.15,273.922 1272.45,274.047C1278.2,274.086 1283.95,274.74 1289.7,274.988C1299.13,275.394 1308.56,275.699 1318.41,276.112Z" style="fill:rgb(216,65,144);fill-rule:nonzero;"/>
        <path d="M1137.71,274.101C1138.17,338.637 1138.12,403.102 1138.12,467.568C1138.11,563.017 1138.13,658.467 1138.16,754.374C1125.38,754.886 1112.57,754.984 1099.76,754.99C1053.17,755.011 1006.58,755.003 959.519,755.052C958.732,752.474 958.124,749.851 958.123,747.227C958.078,591.951 958.079,436.675 958.113,281.399C958.113,279.267 958.574,277.135 958.847,274.602C959.869,274.133 960.864,274.009 961.858,274.009C1020.31,274.01 1078.77,274.02 1137.71,274.101Z" style="fill:rgb(225,113,67);fill-rule:nonzero;"/>
        <path d="M80.471,972.401L80.35,972.595C80.35,972.595 80.583,972.574 80.471,972.401ZM273.526,514.508C273.486,514.504 273.526,514.508 273.526,514.508L364.815,382.474C368.369,379.188 371.883,375.855 375.492,372.631C378.068,370.33 380.757,368.155 383.425,365.96C385.905,363.919 388.426,361.928 391.555,359.656C397.961,355.254 403.741,351.11 409.522,346.966C412.637,344.646 415.752,342.326 419.414,339.777C420.565,339.476 421.169,339.402 421.773,339.329C421.993,339.085 422.213,338.842 423.065,338.071C440.33,328.642 456.967,319.747 473.592,310.832C476.253,309.406 478.865,307.888 481.5,306.412C485.043,304.647 488.458,302.527 492.156,301.193C499.53,298.533 507.089,296.392 514.518,293.876C522.717,291.099 530.7,287.524 539.062,285.434C547.767,283.258 556.816,282.467 565.706,281.018C572.075,279.979 578.401,278.633 584.796,277.818C593.686,276.684 602.618,275.173 611.541,275.112C690.292,274.578 769.044,274.295 847.797,274.013C878.951,273.901 910.106,273.978 941.374,274.263C930.096,276.035 918.561,276.808 907.337,279.103C811.066,298.785 742.569,353.528 701.399,442.714C700.481,442.058 699.808,441.568 699.194,441.012C622.967,371.926 504.23,380.914 439.071,460.708C384.395,527.663 385.026,622.325 440.599,690.212C493.717,755.1 588.209,773.432 663.25,733.153C672.739,728.059 681.507,721.622 690.702,716.202C725.591,820.058 795.975,884.461 902.448,908.96C920.978,913.224 939.903,915.028 958.99,914.108C959.045,945.902 959.38,977.698 959,1009.49C958.868,1020.49 957.082,1031.48 955.829,1042.45C954.742,1051.96 953.483,1061.45 952.023,1070.91C951.193,1076.29 950.063,1081.65 948.62,1086.9C944.916,1100.38 941.345,1113.91 936.962,1127.17C934.38,1134.98 930.351,1142.31 926.661,1150.46C925.133,1153.55 923.993,1156.08 922.686,1158.53C913.506,1175.66 904.291,1192.78 895.088,1209.9C894.865,1210.13 894.641,1210.36 894.067,1211C893.544,1212.08 893.372,1212.74 893.2,1213.4C890.455,1217.53 887.709,1221.66 884.542,1226.28C880.486,1231.64 876.852,1236.51 873.218,1241.37C868.581,1247.25 863.945,1253.13 858.854,1259.21C858.241,1259.45 858.083,1259.5 857.926,1259.54C858.181,1259.56 858.436,1259.58 858.691,1259.6C858.947,1264.46 854.25,1265.08 851.188,1267.81C850.364,1268.34 850.169,1268.7 849.974,1269.07C849.974,1269.07 849.982,1268.99 849.673,1268.96C843.905,1274.65 838.445,1280.36 832.986,1286.07C832.986,1286.07 832.985,1285.98 832.703,1286.03C832.271,1286.45 832.122,1286.84 831.972,1287.22C825.187,1296.61 815.276,1302.3 805.596,1309.28C800.134,1313.22 795.295,1316.88 790.457,1320.56C781.674,1326.38 772.894,1332.22 764.105,1338.04C761.233,1339.94 758.336,1341.81 754.873,1343.68C750.352,1345.53 746.405,1347.39 742.465,1349.27C733.169,1353.71 723.877,1358.15 714.583,1362.59C710.419,1364.85 706.427,1367.55 702.051,1369.28C695.486,1371.87 688.655,1373.78 681.931,1375.97C673.984,1378.55 666.113,1381.42 658.051,1383.57C652.812,1384.97 647.263,1385.17 641.904,1386.17C636.85,1387.12 631.889,1388.55 626.838,1389.52C622.2,1390.4 617.516,1391.14 612.819,1391.61C600.191,1392.89 587.546,1394.99 574.906,1395.01C411.619,1395.18 248.331,1395.05 85.044,1394.98C83.286,1394.98 81.528,1394.73 79.769,1394.59C79.565,1394.09 79.36,1393.59 79.155,1393.08C83.874,1389.94 88.694,1386.95 93.28,1383.62C96.719,1381.13 99.805,1378.16 103.146,1375.53C105.996,1373.28 108.964,1371.17 111.921,1369.07C115.982,1366.17 120.045,1363.27 124.178,1360.48C127.552,1358.19 131.05,1356.1 134.456,1353.86C137.624,1351.78 140.767,1349.66 143.878,1347.5C148.1,1344.57 152.365,1341.68 156.453,1338.57C159.835,1335.99 162.932,1333.04 166.256,1330.38C168.966,1328.22 171.805,1326.2 174.622,1324.17C178.926,1321.07 183.185,1317.89 187.608,1314.96C190.999,1312.71 194.662,1310.88 198.114,1308.73C200.779,1307.06 203.403,1305.29 205.867,1303.35C209.078,1300.81 212.038,1297.95 215.245,1295.41C218.086,1293.16 221.058,1291.06 224.081,1289.06C228.162,1286.35 232.522,1284.03 236.383,1281.05C237.562,1280.14 237.925,1277.62 237.931,1275.83C238.026,1250.34 237.996,1224.84 237.996,1199.35L237.996,1050.01C235.21,1050.01 232.408,1050.45 229.791,1049.94C218.213,1047.68 206.658,1045.28 195.155,1042.67C189.131,1041.3 183.07,1039.82 177.319,1037.62C171.105,1035.24 165.246,1031.94 159.209,1029.09C152.056,1025.72 144.849,1022.46 137.738,1019C136.355,1018.33 135.308,1016.96 133.588,1015.51C126.241,1010.47 119.411,1005.84 112.582,1001.21C106.993,997.382 101.403,993.56 96.068,989.332C96.218,988.955 96.114,988.983 96.009,989.011C95.395,988.913 94.526,989.041 94.205,988.681C90.994,985.078 88.044,981.229 84.668,977.796C82.505,975.597 79.514,974.211 77.361,972.004C76.284,970.9 76.251,968.776 75.597,966.653C75.287,965.879 75.289,965.577 75.455,965.29C74.661,964.65 73.868,964.011 72.748,962.86C71.935,961.887 71.448,961.425 70.962,960.964C70.962,960.964 71.029,960.975 70.782,960.746C66.029,953.88 61.533,947.236 56.976,940.633C56.839,940.434 56.075,940.668 55.603,940.699C53.292,936.686 50.98,932.673 48.49,927.945C47.664,925.57 47.072,923.885 46.361,922.252C41.426,910.924 36.466,899.607 31.514,888.286C27.565,882.147 25.531,875.442 24.295,868.213C21.615,852.551 17.616,837.092 18.218,820.214C18.277,813.23 18.124,807.059 17.971,800.888C18.41,780.593 21.365,760.723 28.329,740.941C31.592,733.081 34.544,725.761 37.418,718.411C37.485,718.241 36.681,717.73 36.283,717.378C40.035,709.559 43.826,701.758 47.524,693.914C49.412,689.911 52.245,690.362 55.317,692.134C67.758,699.313 80.2,706.491 92.582,713.771C102.431,719.561 112.183,725.515 121.998,731.361C128.592,735.289 135.222,739.155 142.315,743.472C149.72,747.882 156.646,751.869 163.572,755.856C164.99,756.583 166.409,757.311 168.346,758.458C175.733,762.684 182.6,766.489 189.468,770.294C205.565,779.483 221.663,788.673 237.914,797.949C237.914,753.321 237.786,708.951 238.016,664.582C238.066,655.074 239.281,645.56 240.209,636.073C240.924,628.768 243.15,621.423 242.642,614.241C242.157,607.404 245.577,601.804 245.975,595.38C246.384,588.779 247.803,582.234 248.943,575.693C249.137,574.579 250.422,573.685 250.737,572.559C252.047,567.888 253.033,563.122 254.426,558.478C255.353,555.392 256.774,552.455 257.964,549.447C259.977,544.361 261.981,539.272 264.285,533.574C266.648,527.623 268.715,522.282 271.089,516.879C271.574,516.706 271.751,516.595 272.054,516.401C272.181,516.318 272.297,516.573 272.297,516.573C272.297,516.573 271.908,516.508 271.82,516.138C271.709,515.517 271.687,515.265 271.945,514.653C272.154,513.705 272.083,513.115 272.011,512.526C271.828,512.275 271.745,511.995 272.179,511.508C272.832,510.936 273.07,510.539 273.615,510.133C274.257,509.899 274.593,509.675 275.06,509.378C275.192,509.306 275.291,509.566 275.291,509.566C275.291,509.566 274.909,509.478 274.932,509.105C283.917,492.303 292.881,475.874 301.844,459.444C302.02,454.774 305.721,452.256 308.634,448.751C313.963,441.845 318.875,435.19 323.787,428.535C326.338,424.589 328.609,420.421 331.507,416.749C335.767,411.352 340.474,406.309 345.501,400.727C352.28,394.385 358.547,388.429 364.815,382.474" style="fill:rgb(33,37,61);fill-rule:nonzero;"/>
        <path d="M701.399,442.714C717.026,458.093 730.097,474.991 739.758,494.467C775.069,565.654 759.534,651.7 701.454,705.946C698.048,709.127 694.477,712.133 690.796,715.514C681.507,721.622 672.739,728.059 663.25,733.153C588.209,773.432 493.717,755.1 440.599,690.212C385.026,622.325 384.395,527.663 439.071,460.708C504.23,380.914 622.967,371.926 699.194,441.012C699.808,441.568 700.481,442.058 701.399,442.714M485.484,500.937C481.024,507.949 475.851,514.613 472.219,522.031C447.866,571.756 460.186,631.529 504.482,667.151C521.739,681.028 541.562,689.739 563.75,692.26C587.047,694.907 609.261,691.694 630.323,680.573C645.14,672.75 658.548,663.548 669.181,650.414C686.117,629.497 696.117,606.095 696.122,578.833C696.124,568.4 696.203,558.024 693.741,547.744C687.55,521.893 674.767,500.098 654.137,483.238C627.325,461.326 596.518,452.593 562.242,457.179C531.143,461.34 505.797,476.148 485.484,500.937Z" style="fill:rgb(254,254,254);fill-rule:nonzero;"/>
        <g transform="matrix(1.02703,0,0,1.0317,-15.5633,-18.7192)">
            <path d="M472.033,619.683C453.346,571.319 464.152,523.05 501.14,488.66C541.631,451.012 607.471,448.948 650.273,483.96C679.448,507.826 694.268,538.714 694.098,576.276C693.831,635.02 646.678,685.259 588.493,689.574C537.557,693.351 494.179,667.417 472.033,619.683Z" style="fill:rgb(1,1,1);fill-rule:nonzero;"/>
        </g>
    </g>
</svg>