<svg xmlns="http://www.w3.org/2000/svg" viewBox="0 0 400 400">
  <defs/>
  <g fill-rule="evenodd">
    <path fill="#070505" d="M185.019 47.469c-1.75.092-3.37.319-3.6.505-.23.186-2.129.467-4.219.626-2.09.159-3.98.429-4.2.6-.22.171-1.706.439-3.302.596-1.595.157-2.993.435-3.106.617-.112.182-1.194.455-2.404.606-1.209.151-2.297.433-2.417.628-.12.194-.598.353-1.063.353-1.028 0-15.154 4.709-15.688 5.23-.209.203-.639.37-.956.37-.615 0-1.648.45-7.708 3.356-2.115 1.014-4.05 1.844-4.3 1.844-.251 0-.456.166-.456.368 0 .203-.54.487-1.2.632-.66.145-1.2.424-1.2.62s-.945.819-2.1 1.385c-2.412 1.181-3.203 1.641-4.973 2.894-.701.496-1.357.901-1.46.901-.102 0-1.239.726-2.527 1.613-1.287.887-3.24 2.207-4.34 2.934-1.1.726-2.247 1.62-2.549 1.987-.302.366-.732.666-.955.666-.224 0-1.237.737-2.251 1.638L105 81.141a57.02 57.02 0 01-2.4 1.994c-1.63 1.262-11.4 10.879-11.4 11.221 0 .151-.9 1.161-2 2.244-1.1 1.083-2 2.135-2 2.338 0 .202-.63.962-1.4 1.688-.77.726-1.4 1.448-1.4 1.604 0 .156-.81 1.232-1.8 2.391-.99 1.158-1.8 2.232-1.8 2.385 0 .153-.54.961-1.2 1.794-.66.833-1.2 1.643-1.2 1.8 0 .157-.54.967-1.2 1.8-.66.833-1.2 1.641-1.2 1.796 0 .154-.395.835-.877 1.512-.931 1.308-1.86 2.988-5.025 9.092-1.084 2.09-2.254 4.34-2.599 5-1.074 2.052-2.621 5.553-2.915 6.6-.155.55-.419 1.18-.587 1.4-.167.22-.436 1.03-.597 1.8-.161.77-.431 1.58-.6 1.8-.169.22-.441 1.024-.605 1.787-.163.763-.454 1.708-.646 2.1l-.698 1.426c-.192.392-.483 1.337-.646 2.1-.164.763-.44 1.567-.614 1.787-.174.22-.446 1.3-.604 2.4-.158 1.1-.445 2.198-.637 2.441-.193.242-.466 1.547-.607 2.9-.141 1.352-.39 2.459-.553 2.459-.163 0-.425 1.395-.583 3.1-.158 1.705-.437 3.284-.62 3.509-.184.225-.462 2.886-.619 5.913-.157 3.027-.439 5.598-.627 5.714-.445.276-.446 18.852 0 19.127.187.116.468 2.507.624 5.312.156 2.806.43 5.287.608 5.513.178.227.453 1.762.61 3.412.157 1.65.428 3.18.602 3.4.174.22.441 1.432.594 2.694.152 1.261.421 2.382.596 2.491.176.108.445 1.142.598 2.296.153 1.154.422 2.284.598 2.509.176.226.438 1.183.582 2.127.144.945.439 2.07.655 2.5l.765 1.534c.205.413.495 1.405.645 2.204.15.8.432 1.552.627 1.673 1.547.956.317 2.569-3.345 4.385-5.433 2.694-5.673 2.842-7.982 4.915-1.165 1.046-2.613 2.214-3.218 2.596-.605.382-1.102.915-1.104 1.185-.002.27-.72 1.121-1.596 1.891-.876.77-1.594 1.597-1.596 1.838-.002.241-.364.764-.804 1.162-.44.398-.8.966-.8 1.262 0 .296-.18.538-.4.538-.22 0-.4.197-.4.437s-.36.894-.8 1.454c-.44.559-.8 1.428-.8 1.93s-.135.972-.3 1.046c-.165.073-.635.853-1.044 1.733-.41.88-.893 1.895-1.075 2.255-.182.36-.456 1.759-.609 3.108-.152 1.35-.434 2.551-.625 2.67-.453.28-.453 12.054 0 12.334.191.118.47 1.135.619 2.259.149 1.124.443 2.388.652 2.809l.782 1.56c.22.437.4 1.005.4 1.263 0 .772 2.893 6.432 4.088 8 .612.801 1.117 1.611 1.123 1.8.021.688 7.443 8.017 8.789 8.678 1.293.636 2.52 1.408 2.754 1.733.839 1.163 9.467 4.728 12.446 5.143.99.137 2.16.415 2.6.616.448.204 11.89.411 26 .469l25.2.103 1.827 1.05c1.004.577 2.264 1.177 2.8 1.332.942.274 4.186 1.697 6.507 2.854.623.311 1.838.678 2.7.816.861.138 1.566.387 1.566.554 0 .167.806.424 1.791.572.985.147 1.883.417 1.995.6.113.182.882.458 1.71.612.827.155 1.684.425 1.904.6.22.175 1.3.528 2.4.786 1.1.257 3.08.742 4.4 1.078 5.66 1.439 12.49 2.708 18.8 3.49 2.2.273 4.27.617 4.6.764 3.196 1.422 45.621 1.427 48.8.005.33-.147 2.49-.491 4.8-.764 5.92-.698 12.687-1.946 19-3.503 5.11-1.26 6.02-1.511 6.613-1.822.337-.177 1.237-.456 2-.619.763-.164 1.567-.436 1.787-.606.22-.17 1.165-.435 2.1-.589.935-.154 1.7-.444 1.7-.645s.416-.365.924-.365c.507 0 1.272-.264 1.7-.587.427-.323 1.019-.593 1.316-.6.678-.016 2.446-.783 7.26-3.147l3.8-1.866 25.6-.109c14.08-.06 26.05-.271 26.6-.468.55-.197 1.801-.471 2.78-.608.979-.138 1.969-.397 2.2-.577.231-.18.928-.449 1.549-.598 1.011-.241 6.505-2.812 9.671-4.525 1.673-.904 11.4-10.698 11.4-11.477 0-.351.159-.638.353-.638.195 0 .467-.315.606-.7.138-.385.786-1.69 1.439-2.9.654-1.21 1.192-2.515 1.195-2.9.004-.385.143-.7.309-.7.442 0 1.302-2.105 1.58-3.87.133-.842.439-1.658.68-1.815.611-.398.604-16.382-.007-17.153-.245-.309-.564-1.335-.708-2.279-.144-.945-.424-2.025-.622-2.4a290.73 290.73 0 01-2.063-4.192c-.936-1.93-1.941-3.708-2.232-3.949-.292-.242-.53-.675-.53-.962 0-.619-8.304-9.38-8.891-9.38-.222 0-1.018-.54-1.77-1.2-.752-.66-1.553-1.2-1.78-1.2-.227 0-.985-.415-1.686-.922-.7-.508-2.263-1.341-3.473-1.853-2.221-.939-2.735-1.143-5.11-2.037-.901-.339-1.254-.696-1.129-1.141.099-.356.299-1.411.445-2.345.145-.934.408-1.787.583-1.895.176-.109.447-.875.601-1.703.155-.827.423-1.684.595-1.904.173-.22.437-1.251.588-2.291.15-1.04.443-1.995.65-2.123.207-.128.377-.662.377-1.186 0-.524.197-1.075.438-1.224.242-.149.362-.797.267-1.441-.094-.644-.022-1.263.162-1.376.183-.114.333-.725.333-1.359s.161-1.252.358-1.374c.197-.122.487-1.708.644-3.524.158-1.816.442-3.495.632-3.731.19-.236.468-2.717.618-5.514.149-2.797.424-5.18.61-5.295.444-.274.441-18.851-.003-19.126-.188-.116-.47-2.687-.627-5.714-.157-3.027-.433-5.688-.614-5.913-.181-.225-.457-1.715-.614-3.311-.157-1.595-.426-2.988-.598-3.094-.171-.106-.437-1.363-.59-2.794-.153-1.431-.445-2.704-.647-2.829-.203-.126-.369-.657-.369-1.181s-.156-1.049-.347-1.167c-.191-.118-.466-1.112-.612-2.208-.145-1.095-.418-2.087-.606-2.204-.189-.116-.464-1.019-.612-2.007-.148-.987-.423-1.89-.611-2.007-.188-.116-.464-.929-.612-1.807-.148-.878-.434-1.697-.635-1.822-.201-.124-.365-.502-.365-.841 0-.339-.289-1.273-.643-2.077-.354-.803-.878-2-1.165-2.66-.287-.66-1.078-2.392-1.757-3.849-.679-1.457-1.235-2.825-1.235-3.041 0-.456-1.855-4.034-2.546-4.91-.26-.33-1.089-1.86-1.842-3.4-.752-1.54-1.873-3.456-2.49-4.258-.617-.801-1.122-1.656-1.122-1.9 0-.243-.159-.442-.353-.442-.195 0-.469-.315-.61-.7-.475-1.295-1.478-2.9-1.812-2.9-.183 0-.446-.315-.585-.7-.302-.835-1.054-2.106-1.726-2.915a952.626 952.626 0 00-1.7-2.038c-.668-.799-1.222-1.609-1.231-1.8-.009-.191-.549-.789-1.2-1.328-.651-.54-1.183-1.203-1.183-1.473 0-.584-17.114-18.146-17.683-18.146-.215 0-1.499-1.01-2.854-2.245-2.14-1.951-3.614-3.082-6.201-4.755-1.175-.76-1.467-.977-2.862-2.119-.77-.63-1.67-1.275-2-1.433-.33-.157-1.32-.728-2.2-1.268-.88-.54-1.915-1.093-2.3-1.228-.385-.135-.7-.372-.7-.528 0-.155-.81-.687-1.8-1.181-.99-.495-1.8-1.066-1.8-1.271 0-.205-.201-.372-.447-.372s-3.351-1.415-6.9-3.145c-3.549-1.73-7.263-3.461-8.253-3.848-1.968-.769-2.33-.919-5.656-2.352-1.241-.535-2.861-1.102-3.6-1.26-.739-.158-1.524-.426-1.744-.595-.22-.169-1.21-.496-2.2-.727-3.676-.857-5.417-1.337-6.036-1.663-.349-.185-1.654-.464-2.9-.619-1.245-.156-2.264-.424-2.264-.596 0-.173-1.305-.442-2.9-.599-1.595-.157-3.087-.436-3.316-.62-.229-.184-2.119-.458-4.2-.609-2.081-.15-4.002-.446-4.268-.656-.502-.396-22.989-.743-28.697-.442m24.745 11.135c21.337 2.134 40.754 8.564 57.05 18.892a342.33 342.33 0 004.312 2.704c.373.22 1.937 1.298 3.476 2.395 2.652 1.891 4.097 3.025 10.198 8.007 2.585 2.111 10.22 9.749 13.621 13.627 8.421 9.602 18.086 25.38 21.79 35.571.4 1.1.851 2.18 1.003 2.4.152.22.818 2.02 1.481 4 3.06 9.149 5.295 18.711 6.125 26.2 2.283 20.608.462 38.337-5.915 57.6-.547 1.65-1.274 3.605-1.616 4.344l-.621 1.343-8.434-.18c-21.446-.458-37.698-9.825-50.848-29.307-8.141-12.062-14.293-18.336-23.698-24.169-35.359-21.931-79.767-10.323-100.885 26.369-8.209 14.262-18.692 22.213-34.403 26.093-3.133.774-25.628 1.746-27.469 1.188-.919-.279-4.833-11.962-6.112-18.244-1.51-7.416-2.069-10.793-2.603-15.72-6-55.349 26.27-110.177 77.984-132.497 1.1-.475 2.36-1.021 2.8-1.213 17.653-7.709 42.495-11.431 62.764-9.403m56.246 82.811c-17.382 4.876-16.002 29.916 1.82 33.02 17.189 2.993 27.058-18.83 13.507-29.869-3.954-3.222-10.371-4.541-15.327-3.151m-140.21.822c-5.167 1.222-6.423 1.796-9.111 4.165-11.959 10.544-4.711 29.358 11.311 29.358 19.636 0 23.593-26.786 4.861-32.908-1.563-.511-5.903-.889-7.061-.615m82.8 39.974c18.696 2.808 33.047 12.583 44.368 30.221C267.029 234.339 288.735 246 315.456 246c15.145 0 23.863 3.211 30.556 11.253 15.658 18.815 3.652 46.9-21.012 49.154-4.803.439-28.874.464-29.98.032-.686-.269-.359-.75 2.719-3.997 3.328-3.512 5.998-7.19 7.84-10.8 1.078-2.114 1.124-2.105 4.577.907 4.762 4.153 8.396 4.205 10.379.148 1.657-3.393.777-4.687-8.517-12.531-.76-.641-2.2-1.893-3.2-2.781-2.421-2.151-9.353-8.035-11.683-9.917-4.333-3.501-9.457-1.282-9.009 3.902.185 2.138.499 2.506 7.203 8.43l2.716 2.4-.69 2c-9.428 27.314-69.773 44.919-126.701 36.964-3.05-.427-6.29-.938-7.2-1.136a409.32 409.32 0 00-5.054-1.045c-3.558-.715-12.794-3.246-16.964-4.648-4.99-1.677-9.513-3.56-15.025-6.256-2.73-1.334-8.6-4.937-10.258-6.296-.928-.761-1.85-1.383-2.048-1.383-.834 0-8.688-8.375-10.127-10.8-3.105-5.228-4.308-9.839-2.838-10.877 1.119-.791 6.859-5.912 8.56-7.636 3.369-3.415 1.254-8.687-3.484-8.687-2.477 0-1.286-.914-21.596 16.574-6.629 5.708-7.629 7.678-5.559 10.945 2.177 3.435 5.536 3.178 10.053-.771 1.827-1.596 1.865-1.573 3.857 2.394 2.095 4.172 5.643 9.011 8.784 11.981 2.518 2.38 2.669 2.755 1.257 3.11-2.816.706-30.775-.124-33.976-1.009-27.282-7.547-30.942-43.973-5.636-56.081 6.067-2.903 7.984-3.203 22.6-3.541 9.253-.213 13.865-.48 16-.927 20.222-4.232 32.902-13.284 43.625-31.141 14.483-24.121 37.246-35.587 62.975-31.723m-40.295 21.993c-.89.501-9.219 10.32-13.992 16.496-2.335 3.023-2.291 5.838.125 7.871 2.966 2.495 5.521 1.675 9.427-3.027 8.581-10.327 11.721-14.461 11.962-15.749.722-3.848-4.164-7.479-7.522-5.591m58.254-.032c-2.673 1.163-3.881 5.097-2.285 7.439.694 1.018 5.829 7.445 11.016 13.789 4.083 4.993 8.162 5.964 10.413 2.479 1.866-2.887 1.316-4.499-3.669-10.765-11.001-13.824-11.839-14.525-15.475-12.942"/>
    <path fill="#f9b305" d="M194.8 181.984c-15.096 1.358-28.208 7.658-38.824 18.655-3.357 3.477-8.929 10.997-9.707 13.099-1.511 4.084-10.482 14.902-15.869 19.135-12.226 9.61-23.333 13.025-44 13.531-15.518.38-17.705.756-24 4.127-19.667 10.533-21.111 37.78-2.667 50.353 6.917 4.715 9.297 5.182 27.467 5.383 17.657.195 17.068.336 13.588-3.248-3.283-3.382-6.617-8.051-8.372-11.727-1.633-3.419-1.404-3.359-4.072-1.082-4.613 3.939-9.59 2.804-10.567-2.41-.523-2.791-.067-3.306 12.572-14.2 2.935-2.53 7.036-6.074 9.112-7.875 5.384-4.671 7.842-5.121 10.875-1.991 3.092 3.19 1.681 6.513-5.054 11.911-3.212 2.575-4.93 4.453-4.664 5.101.148.36.44 1.284.65 2.054 1.452 5.325 7.624 13.511 12.979 17.214l3.894 2.694c10.712 7.412 28.7 14.009 46.459 17.039 46.753 7.975 96.924-.769 121.411-21.16 7.821-6.513 12.971-15.306 10.289-17.569-8.44-7.123-8.809-7.555-8.771-10.274.054-3.928 4.183-6.598 7.771-5.026 1.05.46 8.4 6.576 16.683 13.882 2.12 1.87 4.789 4.185 5.931 5.145 3.747 3.149 4.517 5.554 2.772 8.655-2.066 3.672-6.039 3.52-10.507-.403-3.005-2.639-3.309-2.672-4.532-.494-1.463 2.603-4.281 6.761-5.488 8.097-.596.66-1.911 2.062-2.921 3.115-1.509 1.573-1.73 1.982-1.238 2.29 1.167.73 30.627.21 33.6-.594 27.295-7.375 31.388-42.706 6.419-55.404-5.385-2.739-10.372-3.591-21.069-3.6-25.838-.022-47.833-11.625-61.514-32.451-9.471-14.418-17.792-22.006-29.812-27.188-8.893-3.834-19.61-5.613-28.824-4.784m-21.504 22.077c1.605.634 2.704 2.663 2.704 4.991 0 2.413-.364 2.927-13.224 18.654-3.084 3.771-8.047 3.439-10.045-.672-1.309-2.695-.861-3.961 3.165-8.954 11.33-14.048 11.199-13.903 13.062-14.456 1.32-.391 2.558-.267 4.338.437m57.97-.013c1.122.443 14.119 16.002 15.341 18.365 1.762 3.408-1.108 7.984-5.007 7.984-2.69 0-3.565-.847-13.2-12.787-5.197-6.44-5.134-6.33-5.172-8.896-.061-4.07 3.828-6.327 8.038-4.666"/>
    <path fill="#fbfbfb" d="M194.6 58.684c-13.353.312-31.35 3.531-40.2 7.189a9.19 9.19 0 01-1 .348c-6.186 1.555-22.743 9.887-30.114 15.154-27.508 19.657-44.922 44.161-52.468 73.825-1.683 6.617-1.943 7.846-2.589 12.2-.359 2.42-.821 5.39-1.028 6.6-1.297 7.59-.654 27.751 1.168 36.6l1.11 5.4c.803 3.91 3.411 13.094 4.657 16.4l.98 2.6 9.142.128c11.671.164 19.366-.876 24.802-3.354.694-.316 1.356-.574 1.473-.574.808 0 6.327-2.934 9.59-5.099 6.618-4.391 12.144-10.414 15.703-17.113 19.971-37.601 67.763-49.926 103.374-26.66 9.273 6.059 15.731 12.869 23.27 24.539 4.952 7.665 10.282 13.053 17.93 18.126 3.696 2.451 11.808 6.607 12.898 6.607.298 0 .713.157.922.35 1.609 1.481 13.594 3.329 20.57 3.172l5.391-.122 1.162-3c.639-1.65 1.409-3.855 1.71-4.9.301-1.045.821-2.845 1.156-4 5.605-19.344 6.083-43.816 1.256-64.3-1.089-4.622-3.376-12.455-4.261-14.6-.182-.44-.778-1.97-1.326-3.4-9.035-23.604-27.048-45.603-49.678-60.67-6.863-4.569-16.331-9.442-23.2-11.94-1.1-.4-2.18-.852-2.4-1.004-.22-.152-.94-.421-1.6-.598-1.396-.375-1.413-.381-2.2-.702-11.089-4.517-30.644-7.565-46.2-7.202m81.138 82.313c17.885 5.426 16.479 30.859-1.872 33.862-18.766 3.071-28.963-19.977-13.771-31.128 4.145-3.043 10.794-4.205 15.643-2.734m-143.783 1.027c11.816 2.724 17.654 16.068 11.351 25.945-9.854 15.44-34.568 8.049-33.177-9.921.85-10.983 11.088-18.499 21.826-16.024"/>
  </g>
</svg>