<svg xmlns="http://www.w3.org/2000/svg" data-name="Layer 1" viewBox="0 0 550 450">
  <circle cx="6.813" cy="6.814" r="6.813" fill="#ffffff"/>
  <circle cx="41.302" cy="6.814" r="6.813" fill="#ffffff"/>
  <circle cx="75.791" cy="6.814" r="6.813" fill="#ffffff"/>
  <circle cx="110.28" cy="6.814" r="6.813" fill="#ffffff"/>
  <circle cx="144.769" cy="6.814" r="6.813" fill="#ffffff"/>
  <circle cx="179.258" cy="6.814" r="6.813" fill="#ffffff"/>
  <circle cx="213.747" cy="6.814" r="6.813" fill="#ffffff"/>
  <circle cx="248.236" cy="6.814" r="6.813" fill="#ffffff"/>
  <circle cx="282.725" cy="6.814" r="6.813" fill="#ffffff"/>
  <circle cx="317.214" cy="6.814" r="6.813" fill="#ffffff"/>
  <circle cx="6.813" cy="41.736" r="6.813" fill="#ffffff"/>
  <circle cx="41.302" cy="41.736" r="6.813" fill="#ffffff"/>
  <circle cx="75.791" cy="41.736" r="6.813" fill="#ffffff"/>
  <circle cx="110.28" cy="41.736" r="6.813" fill="#000000"/>
  <circle cx="144.769" cy="41.736" r="6.813" fill="#ffffff"/>
  <circle cx="179.258" cy="41.736" r="6.813" fill="#ffffff"/>
  <circle cx="213.747" cy="41.736" r="6.813" fill="#ffffff"/>
  <circle cx="248.236" cy="41.736" r="6.813" fill="#ffffff"/>
  <circle cx="282.725" cy="41.736" r="6.813" fill="#ffffff"/>
  <circle cx="317.214" cy="41.736" r="6.813" fill="#ffffff"/>
  <circle cx="6.813" cy="76.658" r="6.813" fill="#ffffff"/>
  <circle cx="41.302" cy="76.658" r="6.813" fill="#ffffff"/>
  <circle cx="75.791" cy="76.658" r="6.813" fill="#ffffff"/>
  <circle cx="110.28" cy="76.658" r="6.813" fill="#ffffff"/>
  <circle cx="144.769" cy="76.658" r="6.813" fill="#ffffff"/>
  <circle cx="179.258" cy="76.658" r="6.813" fill="#ffffff"/>
  <circle cx="213.747" cy="76.658" r="6.813" fill="#ffffff"/>
  <circle cx="248.236" cy="76.658" r="6.813" fill="#ffffff"/>
  <circle cx="282.725" cy="76.658" r="6.813" fill="#ffffff"/>
  <circle cx="317.214" cy="76.658" r="6.813" fill="#ffffff"/>
  <circle cx="6.813" cy="111.58" r="6.813" fill="#ffffff"/>
  <circle cx="41.302" cy="111.58" r="6.813" fill="#ffffff"/>
  <circle cx="75.791" cy="111.58" r="6.813" fill="#ffffff"/>
  <circle cx="110.28" cy="111.58" r="6.813" fill="#ffffff"/>
  <circle cx="144.769" cy="111.58" r="6.813" fill="#ffffff"/>
  <circle cx="179.258" cy="111.58" r="6.813" fill="#ffffff"/>
  <circle cx="213.747" cy="111.58" r="6.813" fill="#ffffff"/>
  <circle cx="248.236" cy="111.58" r="6.813" fill="#ffffff"/>
  <circle cx="282.725" cy="111.58" r="6.813" fill="#ffffff"/>
  <circle cx="317.214" cy="111.58" r="6.813" fill="#ffffff"/>
  <circle cx="6.813" cy="146.502" r="6.813" fill="#ffffff"/>
  <circle cx="41.302" cy="146.502" r="6.813" fill="#000000"/>
  <circle cx="75.791" cy="146.502" r="6.813" fill="#ffffff"/>
  <circle cx="110.28" cy="146.502" r="6.813" fill="#ffffff"/>
  <circle cx="144.769" cy="146.502" r="6.813" fill="#ffffff"/>
  <circle cx="179.258" cy="146.502" r="6.813" fill="#ffffff"/>
  <circle cx="213.747" cy="146.502" r="6.813" fill="#ffffff"/>
  <circle cx="248.236" cy="146.502" r="6.813" fill="#ffffff"/>
  <circle cx="282.725" cy="146.502" r="6.813" fill="#ffffff"/>
  <circle cx="317.214" cy="146.502" r="6.813" fill="#ffffff"/>
  <circle cx="6.813" cy="181.424" r="6.813" fill="#ffffff"/>
  <circle cx="41.302" cy="181.424" r="6.813" fill="#ffffff"/>
  <circle cx="75.791" cy="181.424" r="6.813" fill="#ffffff"/>
  <circle cx="110.28" cy="181.424" r="6.813" fill="#ffffff"/>
  <circle cx="144.769" cy="181.424" r="6.813" fill="#ffffff"/>
  <circle cx="179.258" cy="181.424" r="6.813" fill="#ffffff"/>
  <circle cx="213.747" cy="181.424" r="6.813" fill="#ffffff"/>
  <circle cx="248.236" cy="181.424" r="6.813" fill="#ffffff"/>
  <circle cx="282.725" cy="181.424" r="6.813" fill="#ffffff"/>
  <circle cx="317.214" cy="181.424" r="6.813" fill="#ffffff"/>
  <circle cx="6.813" cy="216.346" r="6.813" fill="#ffffff"/>
  <circle cx="41.302" cy="216.346" r="6.813" fill="#ffffff"/>
  <circle cx="75.791" cy="216.346" r="6.813" fill="#000000"/>
  <circle cx="110.28" cy="216.346" r="6.813" fill="#ffffff"/>
  <circle cx="144.769" cy="216.346" r="6.813" fill="#ffffff"/>
  <circle cx="179.258" cy="216.346" r="6.813" fill="#ffffff"/>
  <circle cx="213.747" cy="216.346" r="6.813" fill="#ffffff"/>
  <circle cx="248.236" cy="216.346" r="6.813" fill="#ffffff"/>
  <circle cx="282.725" cy="216.346" r="6.813" fill="#ffffff"/>
  <circle cx="317.214" cy="216.346" r="6.813" fill="#ffffff"/>
  <circle cx="6.813" cy="251.268" r="6.813" fill="#ffffff"/>
  <circle cx="41.302" cy="251.268" r="6.813" fill="#ffffff"/>
  <circle cx="75.791" cy="251.268" r="6.813" fill="#ffffff"/>
  <circle cx="110.28" cy="251.268" r="6.813" fill="#ffffff"/>
  <circle cx="144.769" cy="251.268" r="6.813" fill="#ffffff"/>
  <circle cx="179.258" cy="251.268" r="6.813" fill="#ffffff"/>
  <circle cx="213.747" cy="251.268" r="6.813" fill="#ffffff"/>
  <circle cx="248.236" cy="251.268" r="6.813" fill="#ffffff"/>
  <circle cx="282.725" cy="251.268" r="6.813" fill="#ffffff"/>
  <circle cx="317.214" cy="251.268" r="6.813" fill="#ffffff"/>
  <circle cx="6.813" cy="286.19" r="6.813" fill="#ffffff"/>
  <circle cx="41.302" cy="286.19" r="6.813" fill="#ffffff"/>
  <circle cx="75.791" cy="286.19" r="6.813" fill="#ffffff"/>
  <circle cx="110.28" cy="286.19" r="6.813" fill="#ffffff"/>
  <circle cx="144.769" cy="286.19" r="6.813" fill="#ffffff"/>
  <circle cx="179.258" cy="286.19" r="6.813" fill="#ffffff"/>
  <circle cx="213.747" cy="286.19" r="6.813" fill="#ffffff"/>
  <circle cx="248.236" cy="286.19" r="6.813" fill="#ffffff"/>
  <circle cx="282.725" cy="286.19" r="6.813" fill="#ffffff"/>
  <circle cx="317.214" cy="286.19" r="6.813" fill="#ffffff"/>
  <circle cx="6.813" cy="321.112" r="6.813" fill="#ffffff"/>
  <circle cx="41.302" cy="321.112" r="6.813" fill="#ffffff"/>
  <circle cx="75.791" cy="321.112" r="6.813" fill="#ffffff"/>
  <circle cx="110.28" cy="321.112" r="6.813" fill="#ffffff"/>
  <circle cx="144.769" cy="321.112" r="6.813" fill="#ffffff"/>
  <circle cx="179.258" cy="321.112" r="6.813" fill="#ffffff"/>
  <circle cx="213.747" cy="321.112" r="6.813" fill="#ffffff"/>
  <circle cx="248.236" cy="321.112" r="6.813" fill="#ffffff"/>
  <circle cx="282.725" cy="321.112" r="6.813" fill="#ffffff"/>
  <circle cx="317.214" cy="321.112" r="6.813" fill="#ffffff"/>
  <path fill="#000000" d="M400.404 60.892a8.614 8.614 0 0 1 8.614 8.614v344.56a8.614 8.614 0 0 1-8.614 8.613H153.183a8.614 8.614 0 0 1-8.614-8.614V69.505a8.614 8.614 0 0 1 8.614-8.613h247.221"/>
  <path fill="#fff" d="M154.186 413.062H399.4V70.51H154.186Z"/>
  <path fill="#e6e6e6" d="M344.844 124.704a1.723 1.723 0 0 1 1.723 1.723v3.446a1.723 1.723 0 0 1-1.723 1.722H208.743a1.723 1.723 0 0 1-1.723-1.722v-3.446a1.723 1.723 0 0 1 1.723-1.723h136.101m0 16.366a1.723 1.723 0 0 1 1.723 1.723v3.446a1.723 1.723 0 0 1-1.723 1.723H208.743a1.723 1.723 0 0 1-1.723-1.723v-3.446a1.723 1.723 0 0 1 1.723-1.722h136.101"/>
  <path fill="#000000" d="M344.844 157.437a1.723 1.723 0 0 1 1.723 1.723v3.446a1.723 1.723 0 0 1-1.723 1.722H208.743a1.723 1.723 0 0 1-1.723-1.722v-3.446a1.723 1.723 0 0 1 1.723-1.723h136.101"/>
  <path fill="#FF6582" d="M344.844 174.162a1.723 1.723 0 0 1 1.723 1.723v3.445a1.723 1.723 0 0 1-1.723 1.723H208.743a1.723 1.723 0 0 1-1.723-1.723v-3.445a1.723 1.723 0 0 1 1.723-1.723h136.101m0 16.367a1.723 1.723 0 0 1 1.723 1.722v3.446a1.723 1.723 0 0 1-1.723 1.723H208.743a1.723 1.723 0 0 1-1.723-1.723v-3.446a1.723 1.723 0 0 1 1.723-1.722h136.101m0 16.366a1.723 1.723 0 0 1 1.723 1.723v3.446a1.723 1.723 0 0 1-1.723 1.722H208.743a1.723 1.723 0 0 1-1.723-1.722v-3.446a1.723 1.723 0 0 1 1.723-1.723h136.101"/>
  <path fill="#EEBBC3" d="M209.612 261.951a2.002 2.002 0 0 0-2 2v92.916a2.002 2.002 0 0 0 2 2h134.131a2.002 2.002 0 0 0 2-2V263.95a2.002 2.002 0 0 0-2-2Z"/>
  <path fill="#3f3d56" d="m277.241 161.182-1.408-.374L306.56 45.221h178.225v1.457H307.679l-30.438 114.504z"/>
  <path fill="#3f3d56" d="M499.348 61.24a15.29 15.29 0 1 1 15.29-15.29 15.308 15.308 0 0 1-15.29 15.29Zm0-29.125a13.835 13.835 0 1 0 13.834 13.835 13.85 13.85 0 0 0-13.834-13.835Z"/>
  <circle cx="499.348" cy="45.95" r="5.825" fill="#FF6582"/>
  <path fill="#3f3d56" d="m272.477 356.941 1.407.376-30.947 115.528-178.225-.341.003-1.457 177.105.34 30.657-114.446z"/>
  <path fill="#3f3d56" d="M50.18 456.457a15.29 15.29 0 1 1-15.32 15.261 15.308 15.308 0 0 1 15.32-15.261Zm-.056 29.125a13.835 13.835 0 1 0-13.808-13.86 13.85 13.85 0 0 0 13.808 13.86Z"/>
  <circle cx="50.15" cy="471.748" r="5.825" fill="#FF6582"/>
</svg>