<svg xmlns="http://www.w3.org/2000/svg" data-name="Layer 1" viewBox="0 0 414.004 522.326">
  <path fill="#a0fff0" d="M402.007 86.196c-1.39 5.489-6.082 9.723-11.382 11.714-5.3 1.992-11.144 2.014-16.768 1.358-7.05-.822-14.1-2.727-20.033-6.623-5.931-3.896-10.656-9.961-11.891-16.95-1.235-6.99 1.48-14.795 7.413-18.69l-3.708-1.256c-9.041-3.81-20.106-.257-26.697 7.01-6.592 7.27-9.147 17.525-8.768 27.33s3.419 19.303 6.839 28.5c2.246 6.044 4.999 12.429 10.491 15.808 4.87 2.997 10.961 3.027 16.663 2.6 14.385-1.077 29.014-4.688 40.533-13.37 11.52-8.681 19.367-23.154 17.308-37.43Z"/>
  <path d="M117.405 1.551c-4.34 3.326-6.872 8.443-10.04 12.804a215.65 215.65 0 0 0-13.196 22.402 315.56 315.56 0 0 0-21.692 55.578c-8.27 5.523-16.562 11.596-21.077 20.724a69.481 69.481 0 0 0-5.54 45.476 77.736 77.736 0 0 0 14.78 34.81c5.256 7.283 12.128 13.134 19.534 18.138-1.92-2.036-3.767-4.14-5.599-6.255-7.213-7.827-13.518-21.229-15.656-27.278-4.325-13.846-4.789-22.358-5.82-31.92-.708-13.022.863-21.294 4.178-31.932 2.328-6.938 8.733-14.472 15.036-21.2-.082.291-.173.58-.254.871.246-.47.502-.933.75-1.402.214-.227.43-.463.643-.688-.143.095-.286.194-.43.29a811.893 811.893 0 0 1 46.279-76.717c-.04 24.162-2.517 50.1-2.192 74.731 2.85-15.572 5.4-31.196 7.839-46.838 1.646-11.27 3.816-22.606 3.53-34.035.442-6.545-4.988-11.853-11.073-7.559Zm128.293 53.997c-1.249-10.483-1.21-21.448-4.881-31.444-1.594-4.81-6.95-8.238-11.665-5.28-2.897 1.843-4.43 5.025-5.978 7.973-2.428 4.654-4.719 9.378-6.98 14.115-6.224 12.984-12.822 25.9-17.35 39.563.044-.427.088-.854.13-1.281.59-5.995.588-12.214-1.687-17.885-8.846-25.38-33.405-24.553-53.791-13.53-8.177 4.889-14.72 12.017-21.28 18.821 10.633-6.792 21.036-14.703 33.736-16.998 17.32-4.626 30.536-1.445 38.698 15.202 2.616 4.846 3.374 10.428 4.15 15.814a119.337 119.337 0 0 0-3.437 12.454c10.245-20.007 24.732-37.367 35.506-57.066.415-.702.818-1.412 1.225-2.119 3.44 18.625 6.735 37.277 11.01 55.74 1.574 7.182 3.076 14.38 4.699 21.551.01-.676.025-1.352.037-2.028a454.958 454.958 0 0 0-2.142-53.602Z"/>
  <path d="M249.7 105.612c3.598 8.758 5.49 16.667 5.483 25.062.096 7.62.213 11.05-1.477 17.385-2.34 8.86-7.934 16.378-11.656 21.054.066-.083.317-.41.698-.905-6.258 7.657-50.201 50.874-49.052 41.41.773-6.357 39.076 45.63 26.324 62.61-1.779 2.368-4.805 3.466-7.309 5.044 8.981-2.499-29.293-58.133-21.031-62.362 20.44-11.02 70.25-45.835 70.596-70.746-.033-13.773-4.071-27.61-12.575-38.552Zm-139.327-4.242c-12.019.298-11.987 17.906.001 18.237 12.02-.298 11.988-17.907 0-18.237Zm86.383 5.573c-12.019.297-11.988 17.906 0 18.237 12.02-.298 11.99-17.907 0-18.237Zm-44.846 37.785a61.389 61.389 0 0 0-10.456-.723c3.584.99 7.18 1.983 10.682 3.23.01-.078.112.01.232.109-2.542 2.98-6.237 6.48-9.19 9.589a26.46 26.46 0 0 1-3.267 2.929c-1.615-5.908-2.275-12.615-3.761-18.722-.264 5.723-.398 11.463-.091 17.188-.04 5.52 2.95 7.484 7.31 3.608a72.756 72.756 0 0 0 10.677-12.191c2.263-2.644 1.19-4.626-2.137-5.017Zm-4.105 31.756a26.062 26.062 0 0 1-12.711-1.52c-4.568-1.847-9.681-6.2-14.27-9.442 3.743 4.536 7.607 9.457 13.113 11.896a19.86 19.86 0 0 0 16.287-.784 17.29 17.29 0 0 0 2.154-1.34 21.941 21.941 0 0 1-4.573 1.19ZM407.18 60.492a54.093 54.093 0 0 0-17.961-18.628c-7.858-5.498-17.735-8.205-27.097-5.29-1.723.24-12.933 4.631-8.536 3.493 6.612-1.26 13.798-2.255 20.507.388 13.713 6.631 23.301 20.59 26.284 36.06a22.628 22.628 0 0 1-3.107 15.323 36.984 36.984 0 0 1-31.7 17.361c-12.656-.572-24.953-4.113-34.103-14.73-3.45-4.53-8.803-16.573-6.782-24.046 3.116-14.056 16.48-20.693 30.498-19.38-14.876-4.919-31.58 1.139-37.785 15.993-4.309 10.133-1.794 22.035 2.804 31.644 14.272 26.246 54.5 35.312 77.529 15.362 17.243-13.547 21.425-34.96 9.448-53.55Z"/>
  <path fill="#a0fff0" d="m159.646 222.835-37.048 7.492-31.935 155.54c65.744 44.601 93.56-133.797 68.983-163.032Z"/>
  <path d="M42.8 440.58a41.577 41.577 0 0 1-10.74-6.798 33.195 33.195 0 0 1-7.721-9.689 26.472 26.472 0 0 1-2.142-5.653 23.013 23.013 0 0 1-.64-5.888 26.72 26.72 0 0 1 2.909-11.363 41.59 41.59 0 0 1 6.912-9.786 67.477 67.477 0 0 1 9.241-8.053c6.674-4.996 14.192-9.374 21.235-15.204a88.08 88.08 0 0 0 18.21-20.47 98.047 98.047 0 0 0 11.53-24.921 95.906 95.906 0 0 0 .532-54.642L89.9 261.75c-.806-2.08-1.691-4.062-2.555-5.987-1.739-3.846-3.45-7.462-4.773-11.014a48.504 48.504 0 0 1-1.663-5.283 29.178 29.178 0 0 1-.82-5.144 21.665 21.665 0 0 1 1.411-9.763 13.596 13.596 0 0 1 6.082-6.79 26.314 26.314 0 0 1 10.135-2.79 115.677 115.677 0 0 1 11.7-.379c4.007-.019 10.367 13.934 14.358 13.915 31.933-.202 42.634-16.232 74.69-16.681-31.379-2.579-47.035-3.526-82.236-5.686l-6.612-.402c-2.187-.13-4.45-.28-6.808-.35a49.946 49.946 0 0 0-15.095 1.443 27.031 27.031 0 0 0-7.852 3.596 23.721 23.721 0 0 0-6.377 6.397 26.54 26.54 0 0 0-3.57 7.932 33.861 33.861 0 0 0-1.147 8.154 39.174 39.174 0 0 0 .658 7.967 55.077 55.077 0 0 0 1.923 7.325c1.555 4.662 3.471 8.898 5.173 12.936.833 2.026 1.705 3.972 2.313 5.943l.984 2.951a25.663 25.663 0 0 1 .899 2.977l.744 3.024a29.636 29.636 0 0 1 .676 3.04c.306 2.054.733 4.091.962 6.156a91.293 91.293 0 0 1-7.74 48.363 88.112 88.112 0 0 1-12.874 20.373 54.126 54.126 0 0 1-4.002 4.398l-2.106 2.08c-.693.7-1.398 1.389-2.153 2.036-2.97 2.63-6.147 5.117-9.353 7.627-6.401 5.017-13.001 10.147-18.243 16.67a47.404 47.404 0 0 0-6.482 10.496 37.786 37.786 0 0 0-2.016 5.785 32.875 32.875 0 0 0-.916 6.012 26.946 26.946 0 0 0 1.974 11.619 27.227 27.227 0 0 0 2.673 5.022 30.928 30.928 0 0 0 3.442 4.317 37.154 37.154 0 0 0 8.295 6.544 40.675 40.675 0 0 0 9.202 4Z"/>
  <path d="M93.056 408.025c8.497-12.768 15.216-26.853 17.662-41.87 1.721-14.71-.824-28.835-3.607-42.831-3.25 13.178-6.324 28.516-8.98 43.438-2.605 14.926-4.777 29.474-5.075 41.263Zm180.003 35.745a13.492 13.492 0 0 0 7.054-2.903 10.543 10.543 0 0 0 3.518-7 21.851 21.851 0 0 0-.783-7.853 67.772 67.772 0 0 0-2.493-7.323q-5.412-14.232-11.013-28.432-11.215-28.387-23.406-56.45c-16.146-36.097-32.592-68.709-49.317-102.51 13.671 34.44 30.437 74.606 47.202 113.062 8.382 19.228 16.765 38.029 24.761 55.472q3.016 6.533 5.918 12.814l2.893 6.19c.954 2.049 1.932 4.023 2.728 6.003a29.048 29.048 0 0 1 1.8 5.997 12.696 12.696 0 0 1-.235 5.905 9.25 9.25 0 0 1-3.34 4.664 14.849 14.849 0 0 1-5.287 2.365ZM157.078 317.03c-3.276 14.606-7.16 28.084-9.27 41.884-.718 6.772-1.002 13.474-1.341 20.32-.328 6.846-.78 13.8-1.759 20.927a102.28 102.28 0 0 0 9.84-19.489 109.39 109.39 0 0 0 5.803-22.485 96.885 96.885 0 0 0 .762-22.31 71.518 71.518 0 0 0-4.035-18.847Zm117.572 77.599a51.313 51.313 0 0 0 24.662-6.24 62.465 62.465 0 0 0 19.848-16.89 64.527 64.527 0 0 0 7.027-11.284 76.79 76.79 0 0 0 4.73-12.457 89.154 89.154 0 0 0 3.196-26.414 110.472 110.472 0 0 0-3.967-26.297 152.278 152.278 0 0 0-9.252-24.698 239.88 239.88 0 0 0-12.46-22.874c-2.235-3.668-4.566-7.387-7.235-11.052a67.417 67.417 0 0 0-9.262-10.463 48.183 48.183 0 0 0-4.422-3.46c-.75-.548-1.612-1.047-2.418-1.56-.847-.46-1.67-.963-2.542-1.364a39.01 39.01 0 0 0-5.325-2.156l-1.564-.453a18.033 18.033 0 0 0-2.243-.515l-2.233-.428c-.73-.089-1.446-.127-2.166-.192l-1.076-.09c-.353-.02-.683.003-1.026.002l-2.03.026c-.641.052-1.252.144-1.876.214l-.93.112c-.3.048-.573.122-.86.181l-1.7.375-1.557.494-.773.247-.709.302-1.408.602-2.776 1.327-2.934 1.442-.745.373-.312.272-.597.546q-.583.548-1.1 1.1l8.764 5.662 1.078.699c.35.232.626.458.941.687l1.825 1.362 3.591 2.681c.597.442 1.192.88 1.705 1.332.688.65.825.758 1.13 1.036l1.684 1.507c1.121 1.008 2.132 2.127 3.21 3.184a79.248 79.248 0 0 1 10.89 14.468 76.72 76.72 0 0 1 10.593 34.703 79.48 79.48 0 0 1-7.006 36.535 80.501 80.501 0 0 1-23.658 30.448 81.613 81.613 0 0 0 25.761-27.031 83.078 83.078 0 0 0 11.53-37.76 81.742 81.742 0 0 0-8.436-40.168 85.75 85.75 0 0 0-11.48-17.575c-1.178-1.311-2.326-2.653-3.543-3.933l-1.883-1.868-.471-.466-.237-.233-.118-.117.042.036c.072.079.036.042.045.05v-.002c.001-.007.01-.006.01-.006.006.002-.02-.006-.013-.022a.034.034 0 0 1 .011-.011l.012-.004.544.164c.265.076.522.19.784.281a27.496 27.496 0 0 1 5.953 3.052 46.917 46.917 0 0 1 10.318 10.176c3.093 4.019 5.94 8.525 8.798 13.095a237.375 237.375 0 0 1 15.091 27.731 127.586 127.586 0 0 1 9.348 28.788 92.167 92.167 0 0 1 .973 28.927 68.415 68.415 0 0 1-8.76 26.048 61.598 61.598 0 0 1-17.91 19.066 51.604 51.604 0 0 1-23.082 8.75ZM80.12 413.826c-1.14.65-2.33 1.36-3.56 2.13-9.48 5.88-21.61 14.93-33.79 24.71-3.97 3.19-7.94 6.45-11.83 9.7-11.99 10.04-23.18 20.03-30.94 27.49a346.243 346.243 0 0 1 24.33-28.6c1.92-2.03 6.51-6.58 11.77-11.74 8.6-8.42 18.97-18.42 22.34-21.49l5.78.06 11.16.11Z"/>
  <path d="M292.115 446.224c-14.38-14.443-31.917-25.46-50-34.676-10.542-4.833-21.615-8.313-32.765-11.475l-38.7 7.717c1.122.138 2.232.287 3.312.456 16.196 2.817 32.02 7.61 47.64 12.669 15.952 5.146 27.06 11.34 44.236 21.675 24.573 14.968 52.27 45.733 75.532 75.647l3.198 4.089c-14.097-27.475-30.811-53.914-52.453-76.102ZM167.24 397.876l-71.72 14.3-13.27 2.65-5.69 1.13-1.18.24-17.92 3.57c2.24-1.29 4.5-2.52 6.76-3.68a135.586 135.586 0 0 1 22.09-9.14c.21-.07.42-.13.63-.19 26.75-8.34 57.71-11.67 80.3-8.88Z"/>
  <path d="M275.944 397.732a79.12 79.12 0 0 1-22.606 7.984 96.84 96.84 0 0 1-11.2 1.514 28.415 28.415 0 0 1-9.364-.53 10.098 10.098 0 0 1-3.253-1.22 11.553 11.553 0 0 1-3.005-2.807 22.793 22.793 0 0 1-2.572-4.27 32.414 32.414 0 0 1-1.915-5.011 33.314 33.314 0 0 1 1.915-23.633 34.132 34.132 0 0 0-9.955 25.426 35.636 35.636 0 0 0 1.11 7.538 26.362 26.362 0 0 0 3.27 7.551 20.315 20.315 0 0 0 2.87 3.53 18.79 18.79 0 0 0 3.77 2.846 21.685 21.685 0 0 0 8.303 2.657 37.795 37.795 0 0 0 14.417-1.524 53.418 53.418 0 0 0 11.996-4.966 45.739 45.739 0 0 0 16.22-15.085ZM68.55 374.483a79.114 79.114 0 0 1-6.673 23.027 96.793 96.793 0 0 1-5.291 9.986 28.396 28.396 0 0 1-5.885 7.304 10.08 10.08 0 0 1-2.886 1.935 11.561 11.561 0 0 1-4.03.81 22.802 22.802 0 0 1-4.97-.397 32.429 32.429 0 0 1-5.189-1.362 33.31 33.31 0 0 1-18.098-15.319 34.13 34.13 0 0 0 14.874 22.9 35.563 35.563 0 0 0 6.774 3.487 26.35 26.35 0 0 0 8.043 1.738 20.285 20.285 0 0 0 4.54-.277 18.788 18.788 0 0 0 4.51-1.407 21.706 21.706 0 0 0 6.995-5.203 37.808 37.808 0 0 0 7.157-12.607 53.437 53.437 0 0 0 2.947-12.645 45.728 45.728 0 0 0-2.817-21.97Z"/>
</svg>